%TF.GenerationSoftware,KiCad,Pcbnew,10.0.1*%
%TF.CreationDate,2026-05-11T22:49:01+09:00*%
%TF.ProjectId,DRC_POWER2026,4452435f-504f-4574-9552-323032362e6b,rev?*%
%TF.SameCoordinates,Original*%
%TF.FileFunction,Paste,Top*%
%TF.FilePolarity,Positive*%
%FSLAX46Y46*%
G04 Gerber Fmt 4.6, Leading zero omitted, Abs format (unit mm)*
G04 Created by KiCad (PCBNEW 10.0.1) date 2026-05-11 22:49:01*
%MOMM*%
%LPD*%
G01*
G04 APERTURE LIST*
G04 Aperture macros list*
%AMRoundRect*
0 Rectangle with rounded corners*
0 $1 Rounding radius*
0 $2 $3 $4 $5 $6 $7 $8 $9 X,Y pos of 4 corners*
0 Add a 4 corners polygon primitive as box body*
4,1,4,$2,$3,$4,$5,$6,$7,$8,$9,$2,$3,0*
0 Add four circle primitives for the rounded corners*
1,1,$1+$1,$2,$3*
1,1,$1+$1,$4,$5*
1,1,$1+$1,$6,$7*
1,1,$1+$1,$8,$9*
0 Add four rect primitives between the rounded corners*
20,1,$1+$1,$2,$3,$4,$5,0*
20,1,$1+$1,$4,$5,$6,$7,0*
20,1,$1+$1,$6,$7,$8,$9,0*
20,1,$1+$1,$8,$9,$2,$3,0*%
G04 Aperture macros list end*
%ADD10RoundRect,0.237500X0.237500X-0.250000X0.237500X0.250000X-0.237500X0.250000X-0.237500X-0.250000X0*%
%ADD11RoundRect,0.237500X-0.237500X0.250000X-0.237500X-0.250000X0.237500X-0.250000X0.237500X0.250000X0*%
%ADD12RoundRect,0.237500X0.237500X-0.300000X0.237500X0.300000X-0.237500X0.300000X-0.237500X-0.300000X0*%
%ADD13RoundRect,0.237500X-0.237500X0.287500X-0.237500X-0.287500X0.237500X-0.287500X0.237500X0.287500X0*%
%ADD14RoundRect,0.250000X-0.800000X0.450000X-0.800000X-0.450000X0.800000X-0.450000X0.800000X0.450000X0*%
%ADD15RoundRect,0.237500X-0.237500X0.300000X-0.237500X-0.300000X0.237500X-0.300000X0.237500X0.300000X0*%
%ADD16RoundRect,0.033750X-0.746250X-0.101250X0.746250X-0.101250X0.746250X0.101250X-0.746250X0.101250X0*%
%ADD17RoundRect,0.033750X-0.101250X-0.746250X0.101250X-0.746250X0.101250X0.746250X-0.101250X0.746250X0*%
%ADD18RoundRect,0.237500X-0.300000X-0.237500X0.300000X-0.237500X0.300000X0.237500X-0.300000X0.237500X0*%
%ADD19RoundRect,0.237500X0.300000X0.237500X-0.300000X0.237500X-0.300000X-0.237500X0.300000X-0.237500X0*%
%ADD20RoundRect,0.237500X-0.287500X-0.237500X0.287500X-0.237500X0.287500X0.237500X-0.287500X0.237500X0*%
%ADD21RoundRect,0.150000X0.425000X-0.150000X0.425000X0.150000X-0.425000X0.150000X-0.425000X-0.150000X0*%
%ADD22RoundRect,0.075000X0.500000X-0.075000X0.500000X0.075000X-0.500000X0.075000X-0.500000X-0.075000X0*%
%ADD23O,2.100000X1.000000*%
%ADD24O,1.800000X1.000000*%
%ADD25R,2.000000X1.600000*%
G04 APERTURE END LIST*
D10*
%TO.C,R28*%
X90093800Y9390400D03*
X90093800Y11215400D03*
%TD*%
D11*
%TO.C,R22*%
X106502200Y24423400D03*
X106502200Y22598400D03*
%TD*%
D12*
%TO.C,C21*%
X97307400Y5733100D03*
X97307400Y7458100D03*
%TD*%
D10*
%TO.C,R26*%
X106553000Y9900300D03*
X106553000Y11725300D03*
%TD*%
D11*
%TO.C,R23*%
X105047655Y24425095D03*
X105047655Y22600095D03*
%TD*%
D13*
%TO.C,D11*%
X123952000Y95504000D03*
X123952000Y93754000D03*
%TD*%
D14*
%TO.C,D12*%
X113284000Y38257500D03*
X113284000Y33857500D03*
%TD*%
D12*
%TO.C,C16*%
X91567000Y16044400D03*
X91567000Y17769400D03*
%TD*%
D15*
%TO.C,C18*%
X90932000Y21071400D03*
X90932000Y19346400D03*
%TD*%
D16*
%TO.C,U14*%
X93385400Y20377500D03*
X93385400Y19877500D03*
X93385400Y19377500D03*
X93385400Y18877500D03*
X93385400Y18377500D03*
X93385400Y17877500D03*
X93385400Y17377500D03*
X93385400Y16877500D03*
X93385400Y16377500D03*
X93385400Y15877500D03*
X93385400Y15377500D03*
X93385400Y14877500D03*
X93385400Y14377500D03*
X93385400Y13877500D03*
X93385400Y13377500D03*
X93385400Y12877500D03*
D17*
X95315400Y10947500D03*
X95815400Y10947500D03*
X96315400Y10947500D03*
X96815400Y10947500D03*
X97315400Y10947500D03*
X97815400Y10947500D03*
X98315400Y10947500D03*
X98815400Y10947500D03*
X99315400Y10947500D03*
X99815400Y10947500D03*
X100315400Y10947500D03*
X100815400Y10947500D03*
X101315400Y10947500D03*
X101815400Y10947500D03*
X102315400Y10947500D03*
X102815400Y10947500D03*
D16*
X104745400Y12877500D03*
X104745400Y13377500D03*
X104745400Y13877500D03*
X104745400Y14377500D03*
X104745400Y14877500D03*
X104745400Y15377500D03*
X104745400Y15877500D03*
X104745400Y16377500D03*
X104745400Y16877500D03*
X104745400Y17377500D03*
X104745400Y17877500D03*
X104745400Y18377500D03*
X104745400Y18877500D03*
X104745400Y19377500D03*
X104745400Y19877500D03*
X104745400Y20377500D03*
D17*
X102815400Y22307500D03*
X102315400Y22307500D03*
X101815400Y22307500D03*
X101315400Y22307500D03*
X100815400Y22307500D03*
X100315400Y22307500D03*
X99815400Y22307500D03*
X99315400Y22307500D03*
X98815400Y22307500D03*
X98315400Y22307500D03*
X97815400Y22307500D03*
X97315400Y22307500D03*
X96815400Y22307500D03*
X96315400Y22307500D03*
X95815400Y22307500D03*
X95315400Y22307500D03*
%TD*%
D18*
%TO.C,C23*%
X106604900Y15890900D03*
X108329900Y15890900D03*
%TD*%
D19*
%TO.C,C14*%
X99541500Y24120500D03*
X97816500Y24120500D03*
%TD*%
D11*
%TO.C,R24*%
X105079800Y11721500D03*
X105079800Y9896500D03*
%TD*%
D18*
%TO.C,C7*%
X101117400Y24120500D03*
X102842400Y24120500D03*
%TD*%
D14*
%TO.C,D8*%
X86487000Y37962250D03*
X86487000Y33562250D03*
%TD*%
D12*
%TO.C,C19*%
X91567000Y12742400D03*
X91567000Y14467400D03*
%TD*%
D20*
%TO.C,D13*%
X141249400Y23866500D03*
X142999400Y23866500D03*
%TD*%
%TO.C,D14*%
X141300880Y21821194D03*
X143050880Y21821194D03*
%TD*%
D13*
%TO.C,D7*%
X75056780Y96543300D03*
X75056780Y94793300D03*
%TD*%
D19*
%TO.C,C1*%
X104821400Y4704500D03*
X103096400Y4704500D03*
%TD*%
D21*
%TO.C,J3*%
X142582900Y11268500D03*
X142582900Y12068500D03*
D22*
X142582900Y13218500D03*
X142582900Y14218500D03*
X142582900Y14718500D03*
X142582900Y15718500D03*
D21*
X142582900Y16868500D03*
X142582900Y17668500D03*
X142582900Y17668500D03*
X142582900Y16868500D03*
D22*
X142582900Y16218500D03*
X142582900Y15218500D03*
X142582900Y13718500D03*
X142582900Y12718500D03*
D21*
X142582900Y12068500D03*
X142582900Y11268500D03*
D23*
X143157900Y10148500D03*
D24*
X147337900Y10148500D03*
D23*
X143157900Y18788500D03*
D24*
X147337900Y18788500D03*
%TD*%
D25*
%TO.C,SW1*%
X94823900Y3190900D03*
X89423900Y3190900D03*
%TD*%
D11*
%TO.C,R29*%
X91587800Y11215400D03*
X91587800Y9390400D03*
%TD*%
D18*
%TO.C,C20*%
X97867300Y8982100D03*
X99592300Y8982100D03*
%TD*%
M02*
