%TF.GenerationSoftware,KiCad,Pcbnew,10.0.1*%
%TF.CreationDate,2026-05-11T22:06:59+09:00*%
%TF.ProjectId,DRC_POWER2026,4452435f-504f-4574-9552-323032362e6b,rev?*%
%TF.SameCoordinates,Original*%
%TF.FileFunction,Legend,Bot*%
%TF.FilePolarity,Positive*%
%FSLAX46Y46*%
G04 Gerber Fmt 4.6, Leading zero omitted, Abs format (unit mm)*
G04 Created by KiCad (PCBNEW 10.0.1) date 2026-05-11 22:06:59*
%MOMM*%
%LPD*%
G01*
G04 APERTURE LIST*
%ADD10C,0.150000*%
%ADD11C,0.120000*%
G04 APERTURE END LIST*
D10*
X79986094Y68887180D02*
X79986094Y69887180D01*
X79986094Y69887180D02*
X79747999Y69887180D01*
X79747999Y69887180D02*
X79605142Y69839561D01*
X79605142Y69839561D02*
X79509904Y69744323D01*
X79509904Y69744323D02*
X79462285Y69649085D01*
X79462285Y69649085D02*
X79414666Y69458609D01*
X79414666Y69458609D02*
X79414666Y69315752D01*
X79414666Y69315752D02*
X79462285Y69125276D01*
X79462285Y69125276D02*
X79509904Y69030038D01*
X79509904Y69030038D02*
X79605142Y68934800D01*
X79605142Y68934800D02*
X79747999Y68887180D01*
X79747999Y68887180D02*
X79986094Y68887180D01*
X78557523Y69553847D02*
X78557523Y68887180D01*
X78795618Y69934800D02*
X79033713Y69220514D01*
X79033713Y69220514D02*
X78414666Y69220514D01*
X76908819Y96146857D02*
X76432628Y96480190D01*
X76908819Y96718285D02*
X75908819Y96718285D01*
X75908819Y96718285D02*
X75908819Y96337333D01*
X75908819Y96337333D02*
X75956438Y96242095D01*
X75956438Y96242095D02*
X76004057Y96194476D01*
X76004057Y96194476D02*
X76099295Y96146857D01*
X76099295Y96146857D02*
X76242152Y96146857D01*
X76242152Y96146857D02*
X76337390Y96194476D01*
X76337390Y96194476D02*
X76385009Y96242095D01*
X76385009Y96242095D02*
X76432628Y96337333D01*
X76432628Y96337333D02*
X76432628Y96718285D01*
X76908819Y95194476D02*
X76908819Y95765904D01*
X76908819Y95480190D02*
X75908819Y95480190D01*
X75908819Y95480190D02*
X76051676Y95575428D01*
X76051676Y95575428D02*
X76146914Y95670666D01*
X76146914Y95670666D02*
X76194533Y95765904D01*
X76242152Y94337333D02*
X76908819Y94337333D01*
X75861200Y94575428D02*
X76575485Y94813523D01*
X76575485Y94813523D02*
X76575485Y94194476D01*
X139612666Y27580419D02*
X139660285Y27532800D01*
X139660285Y27532800D02*
X139803142Y27485180D01*
X139803142Y27485180D02*
X139898380Y27485180D01*
X139898380Y27485180D02*
X140041237Y27532800D01*
X140041237Y27532800D02*
X140136475Y27628038D01*
X140136475Y27628038D02*
X140184094Y27723276D01*
X140184094Y27723276D02*
X140231713Y27913752D01*
X140231713Y27913752D02*
X140231713Y28056609D01*
X140231713Y28056609D02*
X140184094Y28247085D01*
X140184094Y28247085D02*
X140136475Y28342323D01*
X140136475Y28342323D02*
X140041237Y28437561D01*
X140041237Y28437561D02*
X139898380Y28485180D01*
X139898380Y28485180D02*
X139803142Y28485180D01*
X139803142Y28485180D02*
X139660285Y28437561D01*
X139660285Y28437561D02*
X139612666Y28389942D01*
X138707904Y28485180D02*
X139184094Y28485180D01*
X139184094Y28485180D02*
X139231713Y28008990D01*
X139231713Y28008990D02*
X139184094Y28056609D01*
X139184094Y28056609D02*
X139088856Y28104228D01*
X139088856Y28104228D02*
X138850761Y28104228D01*
X138850761Y28104228D02*
X138755523Y28056609D01*
X138755523Y28056609D02*
X138707904Y28008990D01*
X138707904Y28008990D02*
X138660285Y27913752D01*
X138660285Y27913752D02*
X138660285Y27675657D01*
X138660285Y27675657D02*
X138707904Y27580419D01*
X138707904Y27580419D02*
X138755523Y27532800D01*
X138755523Y27532800D02*
X138850761Y27485180D01*
X138850761Y27485180D02*
X139088856Y27485180D01*
X139088856Y27485180D02*
X139184094Y27532800D01*
X139184094Y27532800D02*
X139231713Y27580419D01*
X139580857Y21389180D02*
X139914190Y21865371D01*
X140152285Y21389180D02*
X140152285Y22389180D01*
X140152285Y22389180D02*
X139771333Y22389180D01*
X139771333Y22389180D02*
X139676095Y22341561D01*
X139676095Y22341561D02*
X139628476Y22293942D01*
X139628476Y22293942D02*
X139580857Y22198704D01*
X139580857Y22198704D02*
X139580857Y22055847D01*
X139580857Y22055847D02*
X139628476Y21960609D01*
X139628476Y21960609D02*
X139676095Y21912990D01*
X139676095Y21912990D02*
X139771333Y21865371D01*
X139771333Y21865371D02*
X140152285Y21865371D01*
X138723714Y22055847D02*
X138723714Y21389180D01*
X138961809Y22436800D02*
X139199904Y21722514D01*
X139199904Y21722514D02*
X138580857Y21722514D01*
X138009428Y22389180D02*
X137914190Y22389180D01*
X137914190Y22389180D02*
X137818952Y22341561D01*
X137818952Y22341561D02*
X137771333Y22293942D01*
X137771333Y22293942D02*
X137723714Y22198704D01*
X137723714Y22198704D02*
X137676095Y22008228D01*
X137676095Y22008228D02*
X137676095Y21770133D01*
X137676095Y21770133D02*
X137723714Y21579657D01*
X137723714Y21579657D02*
X137771333Y21484419D01*
X137771333Y21484419D02*
X137818952Y21436800D01*
X137818952Y21436800D02*
X137914190Y21389180D01*
X137914190Y21389180D02*
X138009428Y21389180D01*
X138009428Y21389180D02*
X138104666Y21436800D01*
X138104666Y21436800D02*
X138152285Y21484419D01*
X138152285Y21484419D02*
X138199904Y21579657D01*
X138199904Y21579657D02*
X138247523Y21770133D01*
X138247523Y21770133D02*
X138247523Y22008228D01*
X138247523Y22008228D02*
X138199904Y22198704D01*
X138199904Y22198704D02*
X138152285Y22293942D01*
X138152285Y22293942D02*
X138104666Y22341561D01*
X138104666Y22341561D02*
X138009428Y22389180D01*
X112308819Y41543857D02*
X111832628Y41877190D01*
X112308819Y42115285D02*
X111308819Y42115285D01*
X111308819Y42115285D02*
X111308819Y41734333D01*
X111308819Y41734333D02*
X111356438Y41639095D01*
X111356438Y41639095D02*
X111404057Y41591476D01*
X111404057Y41591476D02*
X111499295Y41543857D01*
X111499295Y41543857D02*
X111642152Y41543857D01*
X111642152Y41543857D02*
X111737390Y41591476D01*
X111737390Y41591476D02*
X111785009Y41639095D01*
X111785009Y41639095D02*
X111832628Y41734333D01*
X111832628Y41734333D02*
X111832628Y42115285D01*
X112308819Y40591476D02*
X112308819Y41162904D01*
X112308819Y40877190D02*
X111308819Y40877190D01*
X111308819Y40877190D02*
X111451676Y40972428D01*
X111451676Y40972428D02*
X111546914Y41067666D01*
X111546914Y41067666D02*
X111594533Y41162904D01*
X112308819Y40115285D02*
X112308819Y39924809D01*
X112308819Y39924809D02*
X112261200Y39829571D01*
X112261200Y39829571D02*
X112213580Y39781952D01*
X112213580Y39781952D02*
X112070723Y39686714D01*
X112070723Y39686714D02*
X111880247Y39639095D01*
X111880247Y39639095D02*
X111499295Y39639095D01*
X111499295Y39639095D02*
X111404057Y39686714D01*
X111404057Y39686714D02*
X111356438Y39734333D01*
X111356438Y39734333D02*
X111308819Y39829571D01*
X111308819Y39829571D02*
X111308819Y40020047D01*
X111308819Y40020047D02*
X111356438Y40115285D01*
X111356438Y40115285D02*
X111404057Y40162904D01*
X111404057Y40162904D02*
X111499295Y40210523D01*
X111499295Y40210523D02*
X111737390Y40210523D01*
X111737390Y40210523D02*
X111832628Y40162904D01*
X111832628Y40162904D02*
X111880247Y40115285D01*
X111880247Y40115285D02*
X111927866Y40020047D01*
X111927866Y40020047D02*
X111927866Y39829571D01*
X111927866Y39829571D02*
X111880247Y39734333D01*
X111880247Y39734333D02*
X111832628Y39686714D01*
X111832628Y39686714D02*
X111737390Y39639095D01*
X99109099Y36117104D02*
X99918622Y36117104D01*
X99918622Y36117104D02*
X100013860Y36069485D01*
X100013860Y36069485D02*
X100061480Y36021866D01*
X100061480Y36021866D02*
X100109099Y35926628D01*
X100109099Y35926628D02*
X100109099Y35736152D01*
X100109099Y35736152D02*
X100061480Y35640914D01*
X100061480Y35640914D02*
X100013860Y35593295D01*
X100013860Y35593295D02*
X99918622Y35545676D01*
X99918622Y35545676D02*
X99109099Y35545676D01*
X99109099Y35164723D02*
X99109099Y34498057D01*
X99109099Y34498057D02*
X100109099Y34926628D01*
X85511819Y41104107D02*
X85035628Y41437440D01*
X85511819Y41675535D02*
X84511819Y41675535D01*
X84511819Y41675535D02*
X84511819Y41294583D01*
X84511819Y41294583D02*
X84559438Y41199345D01*
X84559438Y41199345D02*
X84607057Y41151726D01*
X84607057Y41151726D02*
X84702295Y41104107D01*
X84702295Y41104107D02*
X84845152Y41104107D01*
X84845152Y41104107D02*
X84940390Y41151726D01*
X84940390Y41151726D02*
X84988009Y41199345D01*
X84988009Y41199345D02*
X85035628Y41294583D01*
X85035628Y41294583D02*
X85035628Y41675535D01*
X85511819Y40151726D02*
X85511819Y40723154D01*
X85511819Y40437440D02*
X84511819Y40437440D01*
X84511819Y40437440D02*
X84654676Y40532678D01*
X84654676Y40532678D02*
X84749914Y40627916D01*
X84749914Y40627916D02*
X84797533Y40723154D01*
X84511819Y39246964D02*
X84511819Y39723154D01*
X84511819Y39723154D02*
X84988009Y39770773D01*
X84988009Y39770773D02*
X84940390Y39723154D01*
X84940390Y39723154D02*
X84892771Y39627916D01*
X84892771Y39627916D02*
X84892771Y39389821D01*
X84892771Y39389821D02*
X84940390Y39294583D01*
X84940390Y39294583D02*
X84988009Y39246964D01*
X84988009Y39246964D02*
X85083247Y39199345D01*
X85083247Y39199345D02*
X85321342Y39199345D01*
X85321342Y39199345D02*
X85416580Y39246964D01*
X85416580Y39246964D02*
X85464200Y39294583D01*
X85464200Y39294583D02*
X85511819Y39389821D01*
X85511819Y39389821D02*
X85511819Y39627916D01*
X85511819Y39627916D02*
X85464200Y39723154D01*
X85464200Y39723154D02*
X85416580Y39770773D01*
X99408199Y43060857D02*
X98932008Y43394190D01*
X99408199Y43632285D02*
X98408199Y43632285D01*
X98408199Y43632285D02*
X98408199Y43251333D01*
X98408199Y43251333D02*
X98455818Y43156095D01*
X98455818Y43156095D02*
X98503437Y43108476D01*
X98503437Y43108476D02*
X98598675Y43060857D01*
X98598675Y43060857D02*
X98741532Y43060857D01*
X98741532Y43060857D02*
X98836770Y43108476D01*
X98836770Y43108476D02*
X98884389Y43156095D01*
X98884389Y43156095D02*
X98932008Y43251333D01*
X98932008Y43251333D02*
X98932008Y43632285D01*
X99408199Y42108476D02*
X99408199Y42679904D01*
X99408199Y42394190D02*
X98408199Y42394190D01*
X98408199Y42394190D02*
X98551056Y42489428D01*
X98551056Y42489428D02*
X98646294Y42584666D01*
X98646294Y42584666D02*
X98693913Y42679904D01*
X98408199Y41489428D02*
X98408199Y41394190D01*
X98408199Y41394190D02*
X98455818Y41298952D01*
X98455818Y41298952D02*
X98503437Y41251333D01*
X98503437Y41251333D02*
X98598675Y41203714D01*
X98598675Y41203714D02*
X98789151Y41156095D01*
X98789151Y41156095D02*
X99027246Y41156095D01*
X99027246Y41156095D02*
X99217722Y41203714D01*
X99217722Y41203714D02*
X99312960Y41251333D01*
X99312960Y41251333D02*
X99360580Y41298952D01*
X99360580Y41298952D02*
X99408199Y41394190D01*
X99408199Y41394190D02*
X99408199Y41489428D01*
X99408199Y41489428D02*
X99360580Y41584666D01*
X99360580Y41584666D02*
X99312960Y41632285D01*
X99312960Y41632285D02*
X99217722Y41679904D01*
X99217722Y41679904D02*
X99027246Y41727523D01*
X99027246Y41727523D02*
X98789151Y41727523D01*
X98789151Y41727523D02*
X98598675Y41679904D01*
X98598675Y41679904D02*
X98503437Y41632285D01*
X98503437Y41632285D02*
X98455818Y41584666D01*
X98455818Y41584666D02*
X98408199Y41489428D01*
X140882666Y30120419D02*
X140930285Y30072800D01*
X140930285Y30072800D02*
X141073142Y30025180D01*
X141073142Y30025180D02*
X141168380Y30025180D01*
X141168380Y30025180D02*
X141311237Y30072800D01*
X141311237Y30072800D02*
X141406475Y30168038D01*
X141406475Y30168038D02*
X141454094Y30263276D01*
X141454094Y30263276D02*
X141501713Y30453752D01*
X141501713Y30453752D02*
X141501713Y30596609D01*
X141501713Y30596609D02*
X141454094Y30787085D01*
X141454094Y30787085D02*
X141406475Y30882323D01*
X141406475Y30882323D02*
X141311237Y30977561D01*
X141311237Y30977561D02*
X141168380Y31025180D01*
X141168380Y31025180D02*
X141073142Y31025180D01*
X141073142Y31025180D02*
X140930285Y30977561D01*
X140930285Y30977561D02*
X140882666Y30929942D01*
X140025523Y30691847D02*
X140025523Y30025180D01*
X140263618Y31072800D02*
X140501713Y30358514D01*
X140501713Y30358514D02*
X139882666Y30358514D01*
X93882474Y42648980D02*
X93882474Y43648980D01*
X93882474Y43648980D02*
X93644379Y43648980D01*
X93644379Y43648980D02*
X93501522Y43601361D01*
X93501522Y43601361D02*
X93406284Y43506123D01*
X93406284Y43506123D02*
X93358665Y43410885D01*
X93358665Y43410885D02*
X93311046Y43220409D01*
X93311046Y43220409D02*
X93311046Y43077552D01*
X93311046Y43077552D02*
X93358665Y42887076D01*
X93358665Y42887076D02*
X93406284Y42791838D01*
X93406284Y42791838D02*
X93501522Y42696600D01*
X93501522Y42696600D02*
X93644379Y42648980D01*
X93644379Y42648980D02*
X93882474Y42648980D01*
X92453903Y43648980D02*
X92644379Y43648980D01*
X92644379Y43648980D02*
X92739617Y43601361D01*
X92739617Y43601361D02*
X92787236Y43553742D01*
X92787236Y43553742D02*
X92882474Y43410885D01*
X92882474Y43410885D02*
X92930093Y43220409D01*
X92930093Y43220409D02*
X92930093Y42839457D01*
X92930093Y42839457D02*
X92882474Y42744219D01*
X92882474Y42744219D02*
X92834855Y42696600D01*
X92834855Y42696600D02*
X92739617Y42648980D01*
X92739617Y42648980D02*
X92549141Y42648980D01*
X92549141Y42648980D02*
X92453903Y42696600D01*
X92453903Y42696600D02*
X92406284Y42744219D01*
X92406284Y42744219D02*
X92358665Y42839457D01*
X92358665Y42839457D02*
X92358665Y43077552D01*
X92358665Y43077552D02*
X92406284Y43172790D01*
X92406284Y43172790D02*
X92453903Y43220409D01*
X92453903Y43220409D02*
X92549141Y43268028D01*
X92549141Y43268028D02*
X92739617Y43268028D01*
X92739617Y43268028D02*
X92834855Y43220409D01*
X92834855Y43220409D02*
X92882474Y43172790D01*
X92882474Y43172790D02*
X92930093Y43077552D01*
X145924566Y17221680D02*
X146257899Y17697871D01*
X146495994Y17221680D02*
X146495994Y18221680D01*
X146495994Y18221680D02*
X146115042Y18221680D01*
X146115042Y18221680D02*
X146019804Y18174061D01*
X146019804Y18174061D02*
X145972185Y18126442D01*
X145972185Y18126442D02*
X145924566Y18031204D01*
X145924566Y18031204D02*
X145924566Y17888347D01*
X145924566Y17888347D02*
X145972185Y17793109D01*
X145972185Y17793109D02*
X146019804Y17745490D01*
X146019804Y17745490D02*
X146115042Y17697871D01*
X146115042Y17697871D02*
X146495994Y17697871D01*
X145543613Y18126442D02*
X145495994Y18174061D01*
X145495994Y18174061D02*
X145400756Y18221680D01*
X145400756Y18221680D02*
X145162661Y18221680D01*
X145162661Y18221680D02*
X145067423Y18174061D01*
X145067423Y18174061D02*
X145019804Y18126442D01*
X145019804Y18126442D02*
X144972185Y18031204D01*
X144972185Y18031204D02*
X144972185Y17935966D01*
X144972185Y17935966D02*
X145019804Y17793109D01*
X145019804Y17793109D02*
X145591232Y17221680D01*
X145591232Y17221680D02*
X144972185Y17221680D01*
X120727666Y28253580D02*
X121060999Y28729771D01*
X121299094Y28253580D02*
X121299094Y29253580D01*
X121299094Y29253580D02*
X120918142Y29253580D01*
X120918142Y29253580D02*
X120822904Y29205961D01*
X120822904Y29205961D02*
X120775285Y29158342D01*
X120775285Y29158342D02*
X120727666Y29063104D01*
X120727666Y29063104D02*
X120727666Y28920247D01*
X120727666Y28920247D02*
X120775285Y28825009D01*
X120775285Y28825009D02*
X120822904Y28777390D01*
X120822904Y28777390D02*
X120918142Y28729771D01*
X120918142Y28729771D02*
X121299094Y28729771D01*
X119870523Y29253580D02*
X120060999Y29253580D01*
X120060999Y29253580D02*
X120156237Y29205961D01*
X120156237Y29205961D02*
X120203856Y29158342D01*
X120203856Y29158342D02*
X120299094Y29015485D01*
X120299094Y29015485D02*
X120346713Y28825009D01*
X120346713Y28825009D02*
X120346713Y28444057D01*
X120346713Y28444057D02*
X120299094Y28348819D01*
X120299094Y28348819D02*
X120251475Y28301200D01*
X120251475Y28301200D02*
X120156237Y28253580D01*
X120156237Y28253580D02*
X119965761Y28253580D01*
X119965761Y28253580D02*
X119870523Y28301200D01*
X119870523Y28301200D02*
X119822904Y28348819D01*
X119822904Y28348819D02*
X119775285Y28444057D01*
X119775285Y28444057D02*
X119775285Y28682152D01*
X119775285Y28682152D02*
X119822904Y28777390D01*
X119822904Y28777390D02*
X119870523Y28825009D01*
X119870523Y28825009D02*
X119965761Y28872628D01*
X119965761Y28872628D02*
X120156237Y28872628D01*
X120156237Y28872628D02*
X120251475Y28825009D01*
X120251475Y28825009D02*
X120299094Y28777390D01*
X120299094Y28777390D02*
X120346713Y28682152D01*
X125930819Y95130857D02*
X125454628Y95464190D01*
X125930819Y95702285D02*
X124930819Y95702285D01*
X124930819Y95702285D02*
X124930819Y95321333D01*
X124930819Y95321333D02*
X124978438Y95226095D01*
X124978438Y95226095D02*
X125026057Y95178476D01*
X125026057Y95178476D02*
X125121295Y95130857D01*
X125121295Y95130857D02*
X125264152Y95130857D01*
X125264152Y95130857D02*
X125359390Y95178476D01*
X125359390Y95178476D02*
X125407009Y95226095D01*
X125407009Y95226095D02*
X125454628Y95321333D01*
X125454628Y95321333D02*
X125454628Y95702285D01*
X125930819Y94178476D02*
X125930819Y94749904D01*
X125930819Y94464190D02*
X124930819Y94464190D01*
X124930819Y94464190D02*
X125073676Y94559428D01*
X125073676Y94559428D02*
X125168914Y94654666D01*
X125168914Y94654666D02*
X125216533Y94749904D01*
X125359390Y93607047D02*
X125311771Y93702285D01*
X125311771Y93702285D02*
X125264152Y93749904D01*
X125264152Y93749904D02*
X125168914Y93797523D01*
X125168914Y93797523D02*
X125121295Y93797523D01*
X125121295Y93797523D02*
X125026057Y93749904D01*
X125026057Y93749904D02*
X124978438Y93702285D01*
X124978438Y93702285D02*
X124930819Y93607047D01*
X124930819Y93607047D02*
X124930819Y93416571D01*
X124930819Y93416571D02*
X124978438Y93321333D01*
X124978438Y93321333D02*
X125026057Y93273714D01*
X125026057Y93273714D02*
X125121295Y93226095D01*
X125121295Y93226095D02*
X125168914Y93226095D01*
X125168914Y93226095D02*
X125264152Y93273714D01*
X125264152Y93273714D02*
X125311771Y93321333D01*
X125311771Y93321333D02*
X125359390Y93416571D01*
X125359390Y93416571D02*
X125359390Y93607047D01*
X125359390Y93607047D02*
X125407009Y93702285D01*
X125407009Y93702285D02*
X125454628Y93749904D01*
X125454628Y93749904D02*
X125549866Y93797523D01*
X125549866Y93797523D02*
X125740342Y93797523D01*
X125740342Y93797523D02*
X125835580Y93749904D01*
X125835580Y93749904D02*
X125883200Y93702285D01*
X125883200Y93702285D02*
X125930819Y93607047D01*
X125930819Y93607047D02*
X125930819Y93416571D01*
X125930819Y93416571D02*
X125883200Y93321333D01*
X125883200Y93321333D02*
X125835580Y93273714D01*
X125835580Y93273714D02*
X125740342Y93226095D01*
X125740342Y93226095D02*
X125549866Y93226095D01*
X125549866Y93226095D02*
X125454628Y93273714D01*
X125454628Y93273714D02*
X125407009Y93321333D01*
X125407009Y93321333D02*
X125359390Y93416571D01*
X96330651Y28080443D02*
X96663984Y28556634D01*
X96902079Y28080443D02*
X96902079Y29080443D01*
X96902079Y29080443D02*
X96521127Y29080443D01*
X96521127Y29080443D02*
X96425889Y29032824D01*
X96425889Y29032824D02*
X96378270Y28985205D01*
X96378270Y28985205D02*
X96330651Y28889967D01*
X96330651Y28889967D02*
X96330651Y28747110D01*
X96330651Y28747110D02*
X96378270Y28651872D01*
X96378270Y28651872D02*
X96425889Y28604253D01*
X96425889Y28604253D02*
X96521127Y28556634D01*
X96521127Y28556634D02*
X96902079Y28556634D01*
X95997317Y29080443D02*
X95330651Y29080443D01*
X95330651Y29080443D02*
X95759222Y28080443D01*
X139580857Y23411680D02*
X139914190Y23887871D01*
X140152285Y23411680D02*
X140152285Y24411680D01*
X140152285Y24411680D02*
X139771333Y24411680D01*
X139771333Y24411680D02*
X139676095Y24364061D01*
X139676095Y24364061D02*
X139628476Y24316442D01*
X139628476Y24316442D02*
X139580857Y24221204D01*
X139580857Y24221204D02*
X139580857Y24078347D01*
X139580857Y24078347D02*
X139628476Y23983109D01*
X139628476Y23983109D02*
X139676095Y23935490D01*
X139676095Y23935490D02*
X139771333Y23887871D01*
X139771333Y23887871D02*
X140152285Y23887871D01*
X139247523Y24411680D02*
X138628476Y24411680D01*
X138628476Y24411680D02*
X138961809Y24030728D01*
X138961809Y24030728D02*
X138818952Y24030728D01*
X138818952Y24030728D02*
X138723714Y23983109D01*
X138723714Y23983109D02*
X138676095Y23935490D01*
X138676095Y23935490D02*
X138628476Y23840252D01*
X138628476Y23840252D02*
X138628476Y23602157D01*
X138628476Y23602157D02*
X138676095Y23506919D01*
X138676095Y23506919D02*
X138723714Y23459300D01*
X138723714Y23459300D02*
X138818952Y23411680D01*
X138818952Y23411680D02*
X139104666Y23411680D01*
X139104666Y23411680D02*
X139199904Y23459300D01*
X139199904Y23459300D02*
X139247523Y23506919D01*
X138057047Y23983109D02*
X138152285Y24030728D01*
X138152285Y24030728D02*
X138199904Y24078347D01*
X138199904Y24078347D02*
X138247523Y24173585D01*
X138247523Y24173585D02*
X138247523Y24221204D01*
X138247523Y24221204D02*
X138199904Y24316442D01*
X138199904Y24316442D02*
X138152285Y24364061D01*
X138152285Y24364061D02*
X138057047Y24411680D01*
X138057047Y24411680D02*
X137866571Y24411680D01*
X137866571Y24411680D02*
X137771333Y24364061D01*
X137771333Y24364061D02*
X137723714Y24316442D01*
X137723714Y24316442D02*
X137676095Y24221204D01*
X137676095Y24221204D02*
X137676095Y24173585D01*
X137676095Y24173585D02*
X137723714Y24078347D01*
X137723714Y24078347D02*
X137771333Y24030728D01*
X137771333Y24030728D02*
X137866571Y23983109D01*
X137866571Y23983109D02*
X138057047Y23983109D01*
X138057047Y23983109D02*
X138152285Y23935490D01*
X138152285Y23935490D02*
X138199904Y23887871D01*
X138199904Y23887871D02*
X138247523Y23792633D01*
X138247523Y23792633D02*
X138247523Y23602157D01*
X138247523Y23602157D02*
X138199904Y23506919D01*
X138199904Y23506919D02*
X138152285Y23459300D01*
X138152285Y23459300D02*
X138057047Y23411680D01*
X138057047Y23411680D02*
X137866571Y23411680D01*
X137866571Y23411680D02*
X137771333Y23459300D01*
X137771333Y23459300D02*
X137723714Y23506919D01*
X137723714Y23506919D02*
X137676095Y23602157D01*
X137676095Y23602157D02*
X137676095Y23792633D01*
X137676095Y23792633D02*
X137723714Y23887871D01*
X137723714Y23887871D02*
X137771333Y23935490D01*
X137771333Y23935490D02*
X137866571Y23983109D01*
X106614237Y53584778D02*
X106947570Y54060969D01*
X107185665Y53584778D02*
X107185665Y54584778D01*
X107185665Y54584778D02*
X106804713Y54584778D01*
X106804713Y54584778D02*
X106709475Y54537159D01*
X106709475Y54537159D02*
X106661856Y54489540D01*
X106661856Y54489540D02*
X106614237Y54394302D01*
X106614237Y54394302D02*
X106614237Y54251445D01*
X106614237Y54251445D02*
X106661856Y54156207D01*
X106661856Y54156207D02*
X106709475Y54108588D01*
X106709475Y54108588D02*
X106804713Y54060969D01*
X106804713Y54060969D02*
X107185665Y54060969D01*
X105661856Y53584778D02*
X106233284Y53584778D01*
X105947570Y53584778D02*
X105947570Y54584778D01*
X105947570Y54584778D02*
X106042808Y54441921D01*
X106042808Y54441921D02*
X106138046Y54346683D01*
X106138046Y54346683D02*
X106233284Y54299064D01*
X105328522Y54584778D02*
X104661856Y54584778D01*
X104661856Y54584778D02*
X105090427Y53584778D01*
X131228819Y33904345D02*
X130228819Y33904345D01*
X130228819Y33904345D02*
X130228819Y33666250D01*
X130228819Y33666250D02*
X130276438Y33523393D01*
X130276438Y33523393D02*
X130371676Y33428155D01*
X130371676Y33428155D02*
X130466914Y33380536D01*
X130466914Y33380536D02*
X130657390Y33332917D01*
X130657390Y33332917D02*
X130800247Y33332917D01*
X130800247Y33332917D02*
X130990723Y33380536D01*
X130990723Y33380536D02*
X131085961Y33428155D01*
X131085961Y33428155D02*
X131181200Y33523393D01*
X131181200Y33523393D02*
X131228819Y33666250D01*
X131228819Y33666250D02*
X131228819Y33904345D01*
X130228819Y32428155D02*
X130228819Y32904345D01*
X130228819Y32904345D02*
X130705009Y32951964D01*
X130705009Y32951964D02*
X130657390Y32904345D01*
X130657390Y32904345D02*
X130609771Y32809107D01*
X130609771Y32809107D02*
X130609771Y32571012D01*
X130609771Y32571012D02*
X130657390Y32475774D01*
X130657390Y32475774D02*
X130705009Y32428155D01*
X130705009Y32428155D02*
X130800247Y32380536D01*
X130800247Y32380536D02*
X131038342Y32380536D01*
X131038342Y32380536D02*
X131133580Y32428155D01*
X131133580Y32428155D02*
X131181200Y32475774D01*
X131181200Y32475774D02*
X131228819Y32571012D01*
X131228819Y32571012D02*
X131228819Y32809107D01*
X131228819Y32809107D02*
X131181200Y32904345D01*
X131181200Y32904345D02*
X131133580Y32951964D01*
X145924566Y11313680D02*
X146257899Y11789871D01*
X146495994Y11313680D02*
X146495994Y12313680D01*
X146495994Y12313680D02*
X146115042Y12313680D01*
X146115042Y12313680D02*
X146019804Y12266061D01*
X146019804Y12266061D02*
X145972185Y12218442D01*
X145972185Y12218442D02*
X145924566Y12123204D01*
X145924566Y12123204D02*
X145924566Y11980347D01*
X145924566Y11980347D02*
X145972185Y11885109D01*
X145972185Y11885109D02*
X146019804Y11837490D01*
X146019804Y11837490D02*
X146115042Y11789871D01*
X146115042Y11789871D02*
X146495994Y11789871D01*
X144972185Y11313680D02*
X145543613Y11313680D01*
X145257899Y11313680D02*
X145257899Y12313680D01*
X145257899Y12313680D02*
X145353137Y12170823D01*
X145353137Y12170823D02*
X145448375Y12075585D01*
X145448375Y12075585D02*
X145543613Y12027966D01*
X103388066Y1926419D02*
X103435685Y1878800D01*
X103435685Y1878800D02*
X103578542Y1831180D01*
X103578542Y1831180D02*
X103673780Y1831180D01*
X103673780Y1831180D02*
X103816637Y1878800D01*
X103816637Y1878800D02*
X103911875Y1974038D01*
X103911875Y1974038D02*
X103959494Y2069276D01*
X103959494Y2069276D02*
X104007113Y2259752D01*
X104007113Y2259752D02*
X104007113Y2402609D01*
X104007113Y2402609D02*
X103959494Y2593085D01*
X103959494Y2593085D02*
X103911875Y2688323D01*
X103911875Y2688323D02*
X103816637Y2783561D01*
X103816637Y2783561D02*
X103673780Y2831180D01*
X103673780Y2831180D02*
X103578542Y2831180D01*
X103578542Y2831180D02*
X103435685Y2783561D01*
X103435685Y2783561D02*
X103388066Y2735942D01*
X103007113Y2735942D02*
X102959494Y2783561D01*
X102959494Y2783561D02*
X102864256Y2831180D01*
X102864256Y2831180D02*
X102626161Y2831180D01*
X102626161Y2831180D02*
X102530923Y2783561D01*
X102530923Y2783561D02*
X102483304Y2735942D01*
X102483304Y2735942D02*
X102435685Y2640704D01*
X102435685Y2640704D02*
X102435685Y2545466D01*
X102435685Y2545466D02*
X102483304Y2402609D01*
X102483304Y2402609D02*
X103054732Y1831180D01*
X103054732Y1831180D02*
X102435685Y1831180D01*
X100529580Y22587357D02*
X100577200Y22634976D01*
X100577200Y22634976D02*
X100624819Y22777833D01*
X100624819Y22777833D02*
X100624819Y22873071D01*
X100624819Y22873071D02*
X100577200Y23015928D01*
X100577200Y23015928D02*
X100481961Y23111166D01*
X100481961Y23111166D02*
X100386723Y23158785D01*
X100386723Y23158785D02*
X100196247Y23206404D01*
X100196247Y23206404D02*
X100053390Y23206404D01*
X100053390Y23206404D02*
X99862914Y23158785D01*
X99862914Y23158785D02*
X99767676Y23111166D01*
X99767676Y23111166D02*
X99672438Y23015928D01*
X99672438Y23015928D02*
X99624819Y22873071D01*
X99624819Y22873071D02*
X99624819Y22777833D01*
X99624819Y22777833D02*
X99672438Y22634976D01*
X99672438Y22634976D02*
X99720057Y22587357D01*
X99720057Y22206404D02*
X99672438Y22158785D01*
X99672438Y22158785D02*
X99624819Y22063547D01*
X99624819Y22063547D02*
X99624819Y21825452D01*
X99624819Y21825452D02*
X99672438Y21730214D01*
X99672438Y21730214D02*
X99720057Y21682595D01*
X99720057Y21682595D02*
X99815295Y21634976D01*
X99815295Y21634976D02*
X99910533Y21634976D01*
X99910533Y21634976D02*
X100053390Y21682595D01*
X100053390Y21682595D02*
X100624819Y22254023D01*
X100624819Y22254023D02*
X100624819Y21634976D01*
X99720057Y21254023D02*
X99672438Y21206404D01*
X99672438Y21206404D02*
X99624819Y21111166D01*
X99624819Y21111166D02*
X99624819Y20873071D01*
X99624819Y20873071D02*
X99672438Y20777833D01*
X99672438Y20777833D02*
X99720057Y20730214D01*
X99720057Y20730214D02*
X99815295Y20682595D01*
X99815295Y20682595D02*
X99910533Y20682595D01*
X99910533Y20682595D02*
X100053390Y20730214D01*
X100053390Y20730214D02*
X100624819Y21301642D01*
X100624819Y21301642D02*
X100624819Y20682595D01*
X107261865Y42699780D02*
X107261865Y43699780D01*
X107261865Y43699780D02*
X107023770Y43699780D01*
X107023770Y43699780D02*
X106880913Y43652161D01*
X106880913Y43652161D02*
X106785675Y43556923D01*
X106785675Y43556923D02*
X106738056Y43461685D01*
X106738056Y43461685D02*
X106690437Y43271209D01*
X106690437Y43271209D02*
X106690437Y43128352D01*
X106690437Y43128352D02*
X106738056Y42937876D01*
X106738056Y42937876D02*
X106785675Y42842638D01*
X106785675Y42842638D02*
X106880913Y42747400D01*
X106880913Y42747400D02*
X107023770Y42699780D01*
X107023770Y42699780D02*
X107261865Y42699780D01*
X105738056Y42699780D02*
X106309484Y42699780D01*
X106023770Y42699780D02*
X106023770Y43699780D01*
X106023770Y43699780D02*
X106119008Y43556923D01*
X106119008Y43556923D02*
X106214246Y43461685D01*
X106214246Y43461685D02*
X106309484Y43414066D01*
X105119008Y43699780D02*
X105023770Y43699780D01*
X105023770Y43699780D02*
X104928532Y43652161D01*
X104928532Y43652161D02*
X104880913Y43604542D01*
X104880913Y43604542D02*
X104833294Y43509304D01*
X104833294Y43509304D02*
X104785675Y43318828D01*
X104785675Y43318828D02*
X104785675Y43080733D01*
X104785675Y43080733D02*
X104833294Y42890257D01*
X104833294Y42890257D02*
X104880913Y42795019D01*
X104880913Y42795019D02*
X104928532Y42747400D01*
X104928532Y42747400D02*
X105023770Y42699780D01*
X105023770Y42699780D02*
X105119008Y42699780D01*
X105119008Y42699780D02*
X105214246Y42747400D01*
X105214246Y42747400D02*
X105261865Y42795019D01*
X105261865Y42795019D02*
X105309484Y42890257D01*
X105309484Y42890257D02*
X105357103Y43080733D01*
X105357103Y43080733D02*
X105357103Y43318828D01*
X105357103Y43318828D02*
X105309484Y43509304D01*
X105309484Y43509304D02*
X105261865Y43604542D01*
X105261865Y43604542D02*
X105214246Y43652161D01*
X105214246Y43652161D02*
X105119008Y43699780D01*
X93984084Y48380880D02*
X93984084Y47571357D01*
X93984084Y47571357D02*
X93936465Y47476119D01*
X93936465Y47476119D02*
X93888846Y47428500D01*
X93888846Y47428500D02*
X93793608Y47380880D01*
X93793608Y47380880D02*
X93603132Y47380880D01*
X93603132Y47380880D02*
X93507894Y47428500D01*
X93507894Y47428500D02*
X93460275Y47476119D01*
X93460275Y47476119D02*
X93412656Y47571357D01*
X93412656Y47571357D02*
X93412656Y48380880D01*
X92793608Y47952309D02*
X92888846Y47999928D01*
X92888846Y47999928D02*
X92936465Y48047547D01*
X92936465Y48047547D02*
X92984084Y48142785D01*
X92984084Y48142785D02*
X92984084Y48190404D01*
X92984084Y48190404D02*
X92936465Y48285642D01*
X92936465Y48285642D02*
X92888846Y48333261D01*
X92888846Y48333261D02*
X92793608Y48380880D01*
X92793608Y48380880D02*
X92603132Y48380880D01*
X92603132Y48380880D02*
X92507894Y48333261D01*
X92507894Y48333261D02*
X92460275Y48285642D01*
X92460275Y48285642D02*
X92412656Y48190404D01*
X92412656Y48190404D02*
X92412656Y48142785D01*
X92412656Y48142785D02*
X92460275Y48047547D01*
X92460275Y48047547D02*
X92507894Y47999928D01*
X92507894Y47999928D02*
X92603132Y47952309D01*
X92603132Y47952309D02*
X92793608Y47952309D01*
X92793608Y47952309D02*
X92888846Y47904690D01*
X92888846Y47904690D02*
X92936465Y47857071D01*
X92936465Y47857071D02*
X92984084Y47761833D01*
X92984084Y47761833D02*
X92984084Y47571357D01*
X92984084Y47571357D02*
X92936465Y47476119D01*
X92936465Y47476119D02*
X92888846Y47428500D01*
X92888846Y47428500D02*
X92793608Y47380880D01*
X92793608Y47380880D02*
X92603132Y47380880D01*
X92603132Y47380880D02*
X92507894Y47428500D01*
X92507894Y47428500D02*
X92460275Y47476119D01*
X92460275Y47476119D02*
X92412656Y47571357D01*
X92412656Y47571357D02*
X92412656Y47761833D01*
X92412656Y47761833D02*
X92460275Y47857071D01*
X92460275Y47857071D02*
X92507894Y47904690D01*
X92507894Y47904690D02*
X92603132Y47952309D01*
X104356819Y36472703D02*
X105166342Y36472703D01*
X105166342Y36472703D02*
X105261580Y36425084D01*
X105261580Y36425084D02*
X105309200Y36377465D01*
X105309200Y36377465D02*
X105356819Y36282227D01*
X105356819Y36282227D02*
X105356819Y36091751D01*
X105356819Y36091751D02*
X105309200Y35996513D01*
X105309200Y35996513D02*
X105261580Y35948894D01*
X105261580Y35948894D02*
X105166342Y35901275D01*
X105166342Y35901275D02*
X104356819Y35901275D01*
X105356819Y34901275D02*
X105356819Y35472703D01*
X105356819Y35186989D02*
X104356819Y35186989D01*
X104356819Y35186989D02*
X104499676Y35282227D01*
X104499676Y35282227D02*
X104594914Y35377465D01*
X104594914Y35377465D02*
X104642533Y35472703D01*
X119552857Y35907819D02*
X119600476Y35860200D01*
X119600476Y35860200D02*
X119743333Y35812580D01*
X119743333Y35812580D02*
X119838571Y35812580D01*
X119838571Y35812580D02*
X119981428Y35860200D01*
X119981428Y35860200D02*
X120076666Y35955438D01*
X120076666Y35955438D02*
X120124285Y36050676D01*
X120124285Y36050676D02*
X120171904Y36241152D01*
X120171904Y36241152D02*
X120171904Y36384009D01*
X120171904Y36384009D02*
X120124285Y36574485D01*
X120124285Y36574485D02*
X120076666Y36669723D01*
X120076666Y36669723D02*
X119981428Y36764961D01*
X119981428Y36764961D02*
X119838571Y36812580D01*
X119838571Y36812580D02*
X119743333Y36812580D01*
X119743333Y36812580D02*
X119600476Y36764961D01*
X119600476Y36764961D02*
X119552857Y36717342D01*
X118600476Y35812580D02*
X119171904Y35812580D01*
X118886190Y35812580D02*
X118886190Y36812580D01*
X118886190Y36812580D02*
X118981428Y36669723D01*
X118981428Y36669723D02*
X119076666Y36574485D01*
X119076666Y36574485D02*
X119171904Y36526866D01*
X117648095Y35812580D02*
X118219523Y35812580D01*
X117933809Y35812580D02*
X117933809Y36812580D01*
X117933809Y36812580D02*
X118029047Y36669723D01*
X118029047Y36669723D02*
X118124285Y36574485D01*
X118124285Y36574485D02*
X118219523Y36526866D01*
X94648257Y1306080D02*
X94981590Y1782271D01*
X95219685Y1306080D02*
X95219685Y2306080D01*
X95219685Y2306080D02*
X94838733Y2306080D01*
X94838733Y2306080D02*
X94743495Y2258461D01*
X94743495Y2258461D02*
X94695876Y2210842D01*
X94695876Y2210842D02*
X94648257Y2115604D01*
X94648257Y2115604D02*
X94648257Y1972747D01*
X94648257Y1972747D02*
X94695876Y1877509D01*
X94695876Y1877509D02*
X94743495Y1829890D01*
X94743495Y1829890D02*
X94838733Y1782271D01*
X94838733Y1782271D02*
X95219685Y1782271D01*
X94267304Y2210842D02*
X94219685Y2258461D01*
X94219685Y2258461D02*
X94124447Y2306080D01*
X94124447Y2306080D02*
X93886352Y2306080D01*
X93886352Y2306080D02*
X93791114Y2258461D01*
X93791114Y2258461D02*
X93743495Y2210842D01*
X93743495Y2210842D02*
X93695876Y2115604D01*
X93695876Y2115604D02*
X93695876Y2020366D01*
X93695876Y2020366D02*
X93743495Y1877509D01*
X93743495Y1877509D02*
X94314923Y1306080D01*
X94314923Y1306080D02*
X93695876Y1306080D01*
X92743495Y1306080D02*
X93314923Y1306080D01*
X93029209Y1306080D02*
X93029209Y2306080D01*
X93029209Y2306080D02*
X93124447Y2163223D01*
X93124447Y2163223D02*
X93219685Y2067985D01*
X93219685Y2067985D02*
X93314923Y2020366D01*
X115516819Y37864357D02*
X115040628Y38197690D01*
X115516819Y38435785D02*
X114516819Y38435785D01*
X114516819Y38435785D02*
X114516819Y38054833D01*
X114516819Y38054833D02*
X114564438Y37959595D01*
X114564438Y37959595D02*
X114612057Y37911976D01*
X114612057Y37911976D02*
X114707295Y37864357D01*
X114707295Y37864357D02*
X114850152Y37864357D01*
X114850152Y37864357D02*
X114945390Y37911976D01*
X114945390Y37911976D02*
X114993009Y37959595D01*
X114993009Y37959595D02*
X115040628Y38054833D01*
X115040628Y38054833D02*
X115040628Y38435785D01*
X114612057Y37483404D02*
X114564438Y37435785D01*
X114564438Y37435785D02*
X114516819Y37340547D01*
X114516819Y37340547D02*
X114516819Y37102452D01*
X114516819Y37102452D02*
X114564438Y37007214D01*
X114564438Y37007214D02*
X114612057Y36959595D01*
X114612057Y36959595D02*
X114707295Y36911976D01*
X114707295Y36911976D02*
X114802533Y36911976D01*
X114802533Y36911976D02*
X114945390Y36959595D01*
X114945390Y36959595D02*
X115516819Y37531023D01*
X115516819Y37531023D02*
X115516819Y36911976D01*
X114516819Y36292928D02*
X114516819Y36197690D01*
X114516819Y36197690D02*
X114564438Y36102452D01*
X114564438Y36102452D02*
X114612057Y36054833D01*
X114612057Y36054833D02*
X114707295Y36007214D01*
X114707295Y36007214D02*
X114897771Y35959595D01*
X114897771Y35959595D02*
X115135866Y35959595D01*
X115135866Y35959595D02*
X115326342Y36007214D01*
X115326342Y36007214D02*
X115421580Y36054833D01*
X115421580Y36054833D02*
X115469200Y36102452D01*
X115469200Y36102452D02*
X115516819Y36197690D01*
X115516819Y36197690D02*
X115516819Y36292928D01*
X115516819Y36292928D02*
X115469200Y36388166D01*
X115469200Y36388166D02*
X115421580Y36435785D01*
X115421580Y36435785D02*
X115326342Y36483404D01*
X115326342Y36483404D02*
X115135866Y36531023D01*
X115135866Y36531023D02*
X114897771Y36531023D01*
X114897771Y36531023D02*
X114707295Y36483404D01*
X114707295Y36483404D02*
X114612057Y36435785D01*
X114612057Y36435785D02*
X114564438Y36388166D01*
X114564438Y36388166D02*
X114516819Y36292928D01*
X103323418Y46604742D02*
X103418656Y46652361D01*
X103418656Y46652361D02*
X103513894Y46747600D01*
X103513894Y46747600D02*
X103656751Y46890457D01*
X103656751Y46890457D02*
X103751989Y46938076D01*
X103751989Y46938076D02*
X103847227Y46938076D01*
X103799608Y46699980D02*
X103894846Y46747600D01*
X103894846Y46747600D02*
X103990084Y46842838D01*
X103990084Y46842838D02*
X104037703Y47033314D01*
X104037703Y47033314D02*
X104037703Y47366647D01*
X104037703Y47366647D02*
X103990084Y47557123D01*
X103990084Y47557123D02*
X103894846Y47652361D01*
X103894846Y47652361D02*
X103799608Y47699980D01*
X103799608Y47699980D02*
X103609132Y47699980D01*
X103609132Y47699980D02*
X103513894Y47652361D01*
X103513894Y47652361D02*
X103418656Y47557123D01*
X103418656Y47557123D02*
X103371037Y47366647D01*
X103371037Y47366647D02*
X103371037Y47033314D01*
X103371037Y47033314D02*
X103418656Y46842838D01*
X103418656Y46842838D02*
X103513894Y46747600D01*
X103513894Y46747600D02*
X103609132Y46699980D01*
X103609132Y46699980D02*
X103799608Y46699980D01*
X102418656Y46699980D02*
X102990084Y46699980D01*
X102704370Y46699980D02*
X102704370Y47699980D01*
X102704370Y47699980D02*
X102799608Y47557123D01*
X102799608Y47557123D02*
X102894846Y47461885D01*
X102894846Y47461885D02*
X102990084Y47414266D01*
X80430666Y27739180D02*
X80763999Y28215371D01*
X81002094Y27739180D02*
X81002094Y28739180D01*
X81002094Y28739180D02*
X80621142Y28739180D01*
X80621142Y28739180D02*
X80525904Y28691561D01*
X80525904Y28691561D02*
X80478285Y28643942D01*
X80478285Y28643942D02*
X80430666Y28548704D01*
X80430666Y28548704D02*
X80430666Y28405847D01*
X80430666Y28405847D02*
X80478285Y28310609D01*
X80478285Y28310609D02*
X80525904Y28262990D01*
X80525904Y28262990D02*
X80621142Y28215371D01*
X80621142Y28215371D02*
X81002094Y28215371D01*
X79525904Y28739180D02*
X80002094Y28739180D01*
X80002094Y28739180D02*
X80049713Y28262990D01*
X80049713Y28262990D02*
X80002094Y28310609D01*
X80002094Y28310609D02*
X79906856Y28358228D01*
X79906856Y28358228D02*
X79668761Y28358228D01*
X79668761Y28358228D02*
X79573523Y28310609D01*
X79573523Y28310609D02*
X79525904Y28262990D01*
X79525904Y28262990D02*
X79478285Y28167752D01*
X79478285Y28167752D02*
X79478285Y27929657D01*
X79478285Y27929657D02*
X79525904Y27834419D01*
X79525904Y27834419D02*
X79573523Y27786800D01*
X79573523Y27786800D02*
X79668761Y27739180D01*
X79668761Y27739180D02*
X79906856Y27739180D01*
X79906856Y27739180D02*
X80002094Y27786800D01*
X80002094Y27786800D02*
X80049713Y27834419D01*
X93909818Y53483180D02*
X94243151Y53959371D01*
X94481246Y53483180D02*
X94481246Y54483180D01*
X94481246Y54483180D02*
X94100294Y54483180D01*
X94100294Y54483180D02*
X94005056Y54435561D01*
X94005056Y54435561D02*
X93957437Y54387942D01*
X93957437Y54387942D02*
X93909818Y54292704D01*
X93909818Y54292704D02*
X93909818Y54149847D01*
X93909818Y54149847D02*
X93957437Y54054609D01*
X93957437Y54054609D02*
X94005056Y54006990D01*
X94005056Y54006990D02*
X94100294Y53959371D01*
X94100294Y53959371D02*
X94481246Y53959371D01*
X92957437Y53483180D02*
X93528865Y53483180D01*
X93243151Y53483180D02*
X93243151Y54483180D01*
X93243151Y54483180D02*
X93338389Y54340323D01*
X93338389Y54340323D02*
X93433627Y54245085D01*
X93433627Y54245085D02*
X93528865Y54197466D01*
X92624103Y54483180D02*
X92005056Y54483180D01*
X92005056Y54483180D02*
X92338389Y54102228D01*
X92338389Y54102228D02*
X92195532Y54102228D01*
X92195532Y54102228D02*
X92100294Y54054609D01*
X92100294Y54054609D02*
X92052675Y54006990D01*
X92052675Y54006990D02*
X92005056Y53911752D01*
X92005056Y53911752D02*
X92005056Y53673657D01*
X92005056Y53673657D02*
X92052675Y53578419D01*
X92052675Y53578419D02*
X92100294Y53530800D01*
X92100294Y53530800D02*
X92195532Y53483180D01*
X92195532Y53483180D02*
X92481246Y53483180D01*
X92481246Y53483180D02*
X92576484Y53530800D01*
X92576484Y53530800D02*
X92624103Y53578419D01*
X137072666Y36724419D02*
X137120285Y36676800D01*
X137120285Y36676800D02*
X137263142Y36629180D01*
X137263142Y36629180D02*
X137358380Y36629180D01*
X137358380Y36629180D02*
X137501237Y36676800D01*
X137501237Y36676800D02*
X137596475Y36772038D01*
X137596475Y36772038D02*
X137644094Y36867276D01*
X137644094Y36867276D02*
X137691713Y37057752D01*
X137691713Y37057752D02*
X137691713Y37200609D01*
X137691713Y37200609D02*
X137644094Y37391085D01*
X137644094Y37391085D02*
X137596475Y37486323D01*
X137596475Y37486323D02*
X137501237Y37581561D01*
X137501237Y37581561D02*
X137358380Y37629180D01*
X137358380Y37629180D02*
X137263142Y37629180D01*
X137263142Y37629180D02*
X137120285Y37581561D01*
X137120285Y37581561D02*
X137072666Y37533942D01*
X136739332Y37629180D02*
X136120285Y37629180D01*
X136120285Y37629180D02*
X136453618Y37248228D01*
X136453618Y37248228D02*
X136310761Y37248228D01*
X136310761Y37248228D02*
X136215523Y37200609D01*
X136215523Y37200609D02*
X136167904Y37152990D01*
X136167904Y37152990D02*
X136120285Y37057752D01*
X136120285Y37057752D02*
X136120285Y36819657D01*
X136120285Y36819657D02*
X136167904Y36724419D01*
X136167904Y36724419D02*
X136215523Y36676800D01*
X136215523Y36676800D02*
X136310761Y36629180D01*
X136310761Y36629180D02*
X136596475Y36629180D01*
X136596475Y36629180D02*
X136691713Y36676800D01*
X136691713Y36676800D02*
X136739332Y36724419D01*
X85291819Y37564107D02*
X84815628Y37897440D01*
X85291819Y38135535D02*
X84291819Y38135535D01*
X84291819Y38135535D02*
X84291819Y37754583D01*
X84291819Y37754583D02*
X84339438Y37659345D01*
X84339438Y37659345D02*
X84387057Y37611726D01*
X84387057Y37611726D02*
X84482295Y37564107D01*
X84482295Y37564107D02*
X84625152Y37564107D01*
X84625152Y37564107D02*
X84720390Y37611726D01*
X84720390Y37611726D02*
X84768009Y37659345D01*
X84768009Y37659345D02*
X84815628Y37754583D01*
X84815628Y37754583D02*
X84815628Y38135535D01*
X85291819Y36611726D02*
X85291819Y37183154D01*
X85291819Y36897440D02*
X84291819Y36897440D01*
X84291819Y36897440D02*
X84434676Y36992678D01*
X84434676Y36992678D02*
X84529914Y37087916D01*
X84529914Y37087916D02*
X84577533Y37183154D01*
X84291819Y35754583D02*
X84291819Y35945059D01*
X84291819Y35945059D02*
X84339438Y36040297D01*
X84339438Y36040297D02*
X84387057Y36087916D01*
X84387057Y36087916D02*
X84529914Y36183154D01*
X84529914Y36183154D02*
X84720390Y36230773D01*
X84720390Y36230773D02*
X85101342Y36230773D01*
X85101342Y36230773D02*
X85196580Y36183154D01*
X85196580Y36183154D02*
X85244200Y36135535D01*
X85244200Y36135535D02*
X85291819Y36040297D01*
X85291819Y36040297D02*
X85291819Y35849821D01*
X85291819Y35849821D02*
X85244200Y35754583D01*
X85244200Y35754583D02*
X85196580Y35706964D01*
X85196580Y35706964D02*
X85101342Y35659345D01*
X85101342Y35659345D02*
X84863247Y35659345D01*
X84863247Y35659345D02*
X84768009Y35706964D01*
X84768009Y35706964D02*
X84720390Y35754583D01*
X84720390Y35754583D02*
X84672771Y35849821D01*
X84672771Y35849821D02*
X84672771Y36040297D01*
X84672771Y36040297D02*
X84720390Y36135535D01*
X84720390Y36135535D02*
X84768009Y36183154D01*
X84768009Y36183154D02*
X84863247Y36230773D01*
X138872994Y14521680D02*
X138872994Y15521680D01*
X138872994Y15521680D02*
X138634899Y15521680D01*
X138634899Y15521680D02*
X138492042Y15474061D01*
X138492042Y15474061D02*
X138396804Y15378823D01*
X138396804Y15378823D02*
X138349185Y15283585D01*
X138349185Y15283585D02*
X138301566Y15093109D01*
X138301566Y15093109D02*
X138301566Y14950252D01*
X138301566Y14950252D02*
X138349185Y14759776D01*
X138349185Y14759776D02*
X138396804Y14664538D01*
X138396804Y14664538D02*
X138492042Y14569300D01*
X138492042Y14569300D02*
X138634899Y14521680D01*
X138634899Y14521680D02*
X138872994Y14521680D01*
X137920613Y15426442D02*
X137872994Y15474061D01*
X137872994Y15474061D02*
X137777756Y15521680D01*
X137777756Y15521680D02*
X137539661Y15521680D01*
X137539661Y15521680D02*
X137444423Y15474061D01*
X137444423Y15474061D02*
X137396804Y15426442D01*
X137396804Y15426442D02*
X137349185Y15331204D01*
X137349185Y15331204D02*
X137349185Y15235966D01*
X137349185Y15235966D02*
X137396804Y15093109D01*
X137396804Y15093109D02*
X137968232Y14521680D01*
X137968232Y14521680D02*
X137349185Y14521680D01*
X88484819Y14598594D02*
X89294342Y14598594D01*
X89294342Y14598594D02*
X89389580Y14550975D01*
X89389580Y14550975D02*
X89437200Y14503356D01*
X89437200Y14503356D02*
X89484819Y14408118D01*
X89484819Y14408118D02*
X89484819Y14217642D01*
X89484819Y14217642D02*
X89437200Y14122404D01*
X89437200Y14122404D02*
X89389580Y14074785D01*
X89389580Y14074785D02*
X89294342Y14027166D01*
X89294342Y14027166D02*
X88484819Y14027166D01*
X88580057Y13598594D02*
X88532438Y13550975D01*
X88532438Y13550975D02*
X88484819Y13455737D01*
X88484819Y13455737D02*
X88484819Y13217642D01*
X88484819Y13217642D02*
X88532438Y13122404D01*
X88532438Y13122404D02*
X88580057Y13074785D01*
X88580057Y13074785D02*
X88675295Y13027166D01*
X88675295Y13027166D02*
X88770533Y13027166D01*
X88770533Y13027166D02*
X88913390Y13074785D01*
X88913390Y13074785D02*
X89484819Y13646213D01*
X89484819Y13646213D02*
X89484819Y13027166D01*
X88484819Y12170023D02*
X88484819Y12360499D01*
X88484819Y12360499D02*
X88532438Y12455737D01*
X88532438Y12455737D02*
X88580057Y12503356D01*
X88580057Y12503356D02*
X88722914Y12598594D01*
X88722914Y12598594D02*
X88913390Y12646213D01*
X88913390Y12646213D02*
X89294342Y12646213D01*
X89294342Y12646213D02*
X89389580Y12598594D01*
X89389580Y12598594D02*
X89437200Y12550975D01*
X89437200Y12550975D02*
X89484819Y12455737D01*
X89484819Y12455737D02*
X89484819Y12265261D01*
X89484819Y12265261D02*
X89437200Y12170023D01*
X89437200Y12170023D02*
X89389580Y12122404D01*
X89389580Y12122404D02*
X89294342Y12074785D01*
X89294342Y12074785D02*
X89056247Y12074785D01*
X89056247Y12074785D02*
X88961009Y12122404D01*
X88961009Y12122404D02*
X88913390Y12170023D01*
X88913390Y12170023D02*
X88865771Y12265261D01*
X88865771Y12265261D02*
X88865771Y12455737D01*
X88865771Y12455737D02*
X88913390Y12550975D01*
X88913390Y12550975D02*
X88961009Y12598594D01*
X88961009Y12598594D02*
X89056247Y12646213D01*
X75499237Y34414572D02*
X75546856Y34366953D01*
X75546856Y34366953D02*
X75689713Y34319333D01*
X75689713Y34319333D02*
X75784951Y34319333D01*
X75784951Y34319333D02*
X75927808Y34366953D01*
X75927808Y34366953D02*
X76023046Y34462191D01*
X76023046Y34462191D02*
X76070665Y34557429D01*
X76070665Y34557429D02*
X76118284Y34747905D01*
X76118284Y34747905D02*
X76118284Y34890762D01*
X76118284Y34890762D02*
X76070665Y35081238D01*
X76070665Y35081238D02*
X76023046Y35176476D01*
X76023046Y35176476D02*
X75927808Y35271714D01*
X75927808Y35271714D02*
X75784951Y35319333D01*
X75784951Y35319333D02*
X75689713Y35319333D01*
X75689713Y35319333D02*
X75546856Y35271714D01*
X75546856Y35271714D02*
X75499237Y35224095D01*
X74546856Y34319333D02*
X75118284Y34319333D01*
X74832570Y34319333D02*
X74832570Y35319333D01*
X74832570Y35319333D02*
X74927808Y35176476D01*
X74927808Y35176476D02*
X75023046Y35081238D01*
X75023046Y35081238D02*
X75118284Y35033619D01*
X73927808Y35319333D02*
X73832570Y35319333D01*
X73832570Y35319333D02*
X73737332Y35271714D01*
X73737332Y35271714D02*
X73689713Y35224095D01*
X73689713Y35224095D02*
X73642094Y35128857D01*
X73642094Y35128857D02*
X73594475Y34938381D01*
X73594475Y34938381D02*
X73594475Y34700286D01*
X73594475Y34700286D02*
X73642094Y34509810D01*
X73642094Y34509810D02*
X73689713Y34414572D01*
X73689713Y34414572D02*
X73737332Y34366953D01*
X73737332Y34366953D02*
X73832570Y34319333D01*
X73832570Y34319333D02*
X73927808Y34319333D01*
X73927808Y34319333D02*
X74023046Y34366953D01*
X74023046Y34366953D02*
X74070665Y34414572D01*
X74070665Y34414572D02*
X74118284Y34509810D01*
X74118284Y34509810D02*
X74165903Y34700286D01*
X74165903Y34700286D02*
X74165903Y34938381D01*
X74165903Y34938381D02*
X74118284Y35128857D01*
X74118284Y35128857D02*
X74070665Y35224095D01*
X74070665Y35224095D02*
X74023046Y35271714D01*
X74023046Y35271714D02*
X73927808Y35319333D01*
X110595580Y37964357D02*
X110643200Y38011976D01*
X110643200Y38011976D02*
X110690819Y38154833D01*
X110690819Y38154833D02*
X110690819Y38250071D01*
X110690819Y38250071D02*
X110643200Y38392928D01*
X110643200Y38392928D02*
X110547961Y38488166D01*
X110547961Y38488166D02*
X110452723Y38535785D01*
X110452723Y38535785D02*
X110262247Y38583404D01*
X110262247Y38583404D02*
X110119390Y38583404D01*
X110119390Y38583404D02*
X109928914Y38535785D01*
X109928914Y38535785D02*
X109833676Y38488166D01*
X109833676Y38488166D02*
X109738438Y38392928D01*
X109738438Y38392928D02*
X109690819Y38250071D01*
X109690819Y38250071D02*
X109690819Y38154833D01*
X109690819Y38154833D02*
X109738438Y38011976D01*
X109738438Y38011976D02*
X109786057Y37964357D01*
X110690819Y37011976D02*
X110690819Y37583404D01*
X110690819Y37297690D02*
X109690819Y37297690D01*
X109690819Y37297690D02*
X109833676Y37392928D01*
X109833676Y37392928D02*
X109928914Y37488166D01*
X109928914Y37488166D02*
X109976533Y37583404D01*
X109690819Y36678642D02*
X109690819Y36059595D01*
X109690819Y36059595D02*
X110071771Y36392928D01*
X110071771Y36392928D02*
X110071771Y36250071D01*
X110071771Y36250071D02*
X110119390Y36154833D01*
X110119390Y36154833D02*
X110167009Y36107214D01*
X110167009Y36107214D02*
X110262247Y36059595D01*
X110262247Y36059595D02*
X110500342Y36059595D01*
X110500342Y36059595D02*
X110595580Y36107214D01*
X110595580Y36107214D02*
X110643200Y36154833D01*
X110643200Y36154833D02*
X110690819Y36250071D01*
X110690819Y36250071D02*
X110690819Y36535785D01*
X110690819Y36535785D02*
X110643200Y36631023D01*
X110643200Y36631023D02*
X110595580Y36678642D01*
X106052857Y28755180D02*
X106386190Y29231371D01*
X106624285Y28755180D02*
X106624285Y29755180D01*
X106624285Y29755180D02*
X106243333Y29755180D01*
X106243333Y29755180D02*
X106148095Y29707561D01*
X106148095Y29707561D02*
X106100476Y29659942D01*
X106100476Y29659942D02*
X106052857Y29564704D01*
X106052857Y29564704D02*
X106052857Y29421847D01*
X106052857Y29421847D02*
X106100476Y29326609D01*
X106100476Y29326609D02*
X106148095Y29278990D01*
X106148095Y29278990D02*
X106243333Y29231371D01*
X106243333Y29231371D02*
X106624285Y29231371D01*
X105100476Y28755180D02*
X105671904Y28755180D01*
X105386190Y28755180D02*
X105386190Y29755180D01*
X105386190Y29755180D02*
X105481428Y29612323D01*
X105481428Y29612323D02*
X105576666Y29517085D01*
X105576666Y29517085D02*
X105671904Y29469466D01*
X104148095Y28755180D02*
X104719523Y28755180D01*
X104433809Y28755180D02*
X104433809Y29755180D01*
X104433809Y29755180D02*
X104529047Y29612323D01*
X104529047Y29612323D02*
X104624285Y29517085D01*
X104624285Y29517085D02*
X104719523Y29469466D01*
X93069580Y26369966D02*
X93117200Y26417585D01*
X93117200Y26417585D02*
X93164819Y26560442D01*
X93164819Y26560442D02*
X93164819Y26655680D01*
X93164819Y26655680D02*
X93117200Y26798537D01*
X93117200Y26798537D02*
X93021961Y26893775D01*
X93021961Y26893775D02*
X92926723Y26941394D01*
X92926723Y26941394D02*
X92736247Y26989013D01*
X92736247Y26989013D02*
X92593390Y26989013D01*
X92593390Y26989013D02*
X92402914Y26941394D01*
X92402914Y26941394D02*
X92307676Y26893775D01*
X92307676Y26893775D02*
X92212438Y26798537D01*
X92212438Y26798537D02*
X92164819Y26655680D01*
X92164819Y26655680D02*
X92164819Y26560442D01*
X92164819Y26560442D02*
X92212438Y26417585D01*
X92212438Y26417585D02*
X92260057Y26369966D01*
X92164819Y25512823D02*
X92164819Y25703299D01*
X92164819Y25703299D02*
X92212438Y25798537D01*
X92212438Y25798537D02*
X92260057Y25846156D01*
X92260057Y25846156D02*
X92402914Y25941394D01*
X92402914Y25941394D02*
X92593390Y25989013D01*
X92593390Y25989013D02*
X92974342Y25989013D01*
X92974342Y25989013D02*
X93069580Y25941394D01*
X93069580Y25941394D02*
X93117200Y25893775D01*
X93117200Y25893775D02*
X93164819Y25798537D01*
X93164819Y25798537D02*
X93164819Y25608061D01*
X93164819Y25608061D02*
X93117200Y25512823D01*
X93117200Y25512823D02*
X93069580Y25465204D01*
X93069580Y25465204D02*
X92974342Y25417585D01*
X92974342Y25417585D02*
X92736247Y25417585D01*
X92736247Y25417585D02*
X92641009Y25465204D01*
X92641009Y25465204D02*
X92593390Y25512823D01*
X92593390Y25512823D02*
X92545771Y25608061D01*
X92545771Y25608061D02*
X92545771Y25798537D01*
X92545771Y25798537D02*
X92593390Y25893775D01*
X92593390Y25893775D02*
X92641009Y25941394D01*
X92641009Y25941394D02*
X92736247Y25989013D01*
X114276094Y69395180D02*
X114276094Y70395180D01*
X114276094Y70395180D02*
X114037999Y70395180D01*
X114037999Y70395180D02*
X113895142Y70347561D01*
X113895142Y70347561D02*
X113799904Y70252323D01*
X113799904Y70252323D02*
X113752285Y70157085D01*
X113752285Y70157085D02*
X113704666Y69966609D01*
X113704666Y69966609D02*
X113704666Y69823752D01*
X113704666Y69823752D02*
X113752285Y69633276D01*
X113752285Y69633276D02*
X113799904Y69538038D01*
X113799904Y69538038D02*
X113895142Y69442800D01*
X113895142Y69442800D02*
X114037999Y69395180D01*
X114037999Y69395180D02*
X114276094Y69395180D01*
X113228475Y69395180D02*
X113037999Y69395180D01*
X113037999Y69395180D02*
X112942761Y69442800D01*
X112942761Y69442800D02*
X112895142Y69490419D01*
X112895142Y69490419D02*
X112799904Y69633276D01*
X112799904Y69633276D02*
X112752285Y69823752D01*
X112752285Y69823752D02*
X112752285Y70204704D01*
X112752285Y70204704D02*
X112799904Y70299942D01*
X112799904Y70299942D02*
X112847523Y70347561D01*
X112847523Y70347561D02*
X112942761Y70395180D01*
X112942761Y70395180D02*
X113133237Y70395180D01*
X113133237Y70395180D02*
X113228475Y70347561D01*
X113228475Y70347561D02*
X113276094Y70299942D01*
X113276094Y70299942D02*
X113323713Y70204704D01*
X113323713Y70204704D02*
X113323713Y69966609D01*
X113323713Y69966609D02*
X113276094Y69871371D01*
X113276094Y69871371D02*
X113228475Y69823752D01*
X113228475Y69823752D02*
X113133237Y69776133D01*
X113133237Y69776133D02*
X112942761Y69776133D01*
X112942761Y69776133D02*
X112847523Y69823752D01*
X112847523Y69823752D02*
X112799904Y69871371D01*
X112799904Y69871371D02*
X112752285Y69966609D01*
X97547580Y26429166D02*
X97595200Y26476785D01*
X97595200Y26476785D02*
X97642819Y26619642D01*
X97642819Y26619642D02*
X97642819Y26714880D01*
X97642819Y26714880D02*
X97595200Y26857737D01*
X97595200Y26857737D02*
X97499961Y26952975D01*
X97499961Y26952975D02*
X97404723Y27000594D01*
X97404723Y27000594D02*
X97214247Y27048213D01*
X97214247Y27048213D02*
X97071390Y27048213D01*
X97071390Y27048213D02*
X96880914Y27000594D01*
X96880914Y27000594D02*
X96785676Y26952975D01*
X96785676Y26952975D02*
X96690438Y26857737D01*
X96690438Y26857737D02*
X96642819Y26714880D01*
X96642819Y26714880D02*
X96642819Y26619642D01*
X96642819Y26619642D02*
X96690438Y26476785D01*
X96690438Y26476785D02*
X96738057Y26429166D01*
X97642819Y25952975D02*
X97642819Y25762499D01*
X97642819Y25762499D02*
X97595200Y25667261D01*
X97595200Y25667261D02*
X97547580Y25619642D01*
X97547580Y25619642D02*
X97404723Y25524404D01*
X97404723Y25524404D02*
X97214247Y25476785D01*
X97214247Y25476785D02*
X96833295Y25476785D01*
X96833295Y25476785D02*
X96738057Y25524404D01*
X96738057Y25524404D02*
X96690438Y25572023D01*
X96690438Y25572023D02*
X96642819Y25667261D01*
X96642819Y25667261D02*
X96642819Y25857737D01*
X96642819Y25857737D02*
X96690438Y25952975D01*
X96690438Y25952975D02*
X96738057Y26000594D01*
X96738057Y26000594D02*
X96833295Y26048213D01*
X96833295Y26048213D02*
X97071390Y26048213D01*
X97071390Y26048213D02*
X97166628Y26000594D01*
X97166628Y26000594D02*
X97214247Y25952975D01*
X97214247Y25952975D02*
X97261866Y25857737D01*
X97261866Y25857737D02*
X97261866Y25667261D01*
X97261866Y25667261D02*
X97214247Y25572023D01*
X97214247Y25572023D02*
X97166628Y25524404D01*
X97166628Y25524404D02*
X97071390Y25476785D01*
%TO.C,D4*%
D11*
X84914980Y70545200D02*
X81054980Y70545200D01*
X84914980Y70545200D02*
X84914980Y68545200D01*
X84914980Y68545200D02*
X81054980Y68545200D01*
%TO.C,R14*%
X74534280Y95899524D02*
X74534280Y95390076D01*
X75579280Y95899524D02*
X75579280Y95390076D01*
%TO.C,C5*%
X136606233Y28577000D02*
X136898767Y28577000D01*
X136606233Y27557000D02*
X136898767Y27557000D01*
%TO.C,R40*%
X142430604Y22343694D02*
X141921156Y22343694D01*
X142430604Y21298694D02*
X141921156Y21298694D01*
%TO.C,R19*%
X112761500Y41155724D02*
X112761500Y40646276D01*
X113806500Y41155724D02*
X113806500Y40646276D01*
%TO.C,U7*%
X94389280Y37655200D02*
X94389280Y32855200D01*
X94389280Y37655200D02*
X94539280Y37655200D01*
X94389280Y32855200D02*
X94539280Y32855200D01*
X98239280Y32855200D02*
X98389280Y32855200D01*
X98389280Y37655200D02*
X98239280Y37655200D01*
X98389280Y32855200D02*
X98389280Y37655200D01*
X98569280Y32215200D02*
X98239280Y32455200D01*
X98569280Y32695200D01*
X98569280Y32215200D01*
G36*
X98569280Y32215200D02*
G01*
X98239280Y32455200D01*
X98569280Y32695200D01*
X98569280Y32215200D01*
G37*
%TO.C,R15*%
X85964500Y40715974D02*
X85964500Y40206526D01*
X87009500Y40715974D02*
X87009500Y40206526D01*
%TO.C,R10*%
X99860880Y42672724D02*
X99860880Y42163276D01*
X100905880Y42672724D02*
X100905880Y42163276D01*
%TO.C,C4*%
X136702748Y31859250D02*
X138125252Y31859250D01*
X136702748Y29139250D02*
X138125252Y29139250D01*
%TO.C,D6*%
X95227380Y42198800D02*
X91367380Y42198800D01*
X95227380Y42198800D02*
X95227380Y40198800D01*
X95227380Y40198800D02*
X91367380Y40198800D01*
%TO.C,R2*%
X146012624Y16769000D02*
X145503176Y16769000D01*
X146012624Y15724000D02*
X145503176Y15724000D01*
%TO.C,R6*%
X120306276Y30660900D02*
X120815724Y30660900D01*
X120306276Y29615900D02*
X120815724Y29615900D01*
%TO.C,R18*%
X123429500Y94860224D02*
X123429500Y94350776D01*
X124474500Y94860224D02*
X124474500Y94350776D01*
%TO.C,R7*%
X95810656Y30621500D02*
X96320104Y30621500D01*
X95810656Y29576500D02*
X96320104Y29576500D01*
%TO.C,R38*%
X142416624Y24389000D02*
X141907176Y24389000D01*
X142416624Y23344000D02*
X141907176Y23344000D01*
%TO.C,R17*%
X108148444Y53119598D02*
X103794316Y53119598D01*
X108148444Y49699598D02*
X103794316Y49699598D01*
%TO.C,D5*%
X131679000Y35249251D02*
X131679000Y31389251D01*
X131679000Y35249251D02*
X133679000Y35249251D01*
X133679000Y35249251D02*
X133679000Y31389251D01*
%TO.C,R1*%
X145503176Y13721000D02*
X146012624Y13721000D01*
X145503176Y12676000D02*
X146012624Y12676000D01*
%TO.C,C2*%
X103932652Y6064500D02*
X102510148Y6064500D01*
X103932652Y3344500D02*
X102510148Y3344500D01*
%TO.C,C22*%
X101090000Y22090767D02*
X101090000Y21798233D01*
X102110000Y22090767D02*
X102110000Y21798233D01*
%TO.C,D10*%
X108130580Y42249600D02*
X104270580Y42249600D01*
X108130580Y42249600D02*
X108130580Y40249600D01*
X108130580Y40249600D02*
X104270580Y40249600D01*
%TO.C,U8*%
X90922180Y46570700D02*
X90922180Y46420700D01*
X90922180Y42570700D02*
X90922180Y42720700D01*
X90922180Y42570700D02*
X95722180Y42570700D01*
X95722180Y46570700D02*
X90922180Y46570700D01*
X95722180Y46420700D02*
X95722180Y46570700D01*
X95722180Y42570700D02*
X95722180Y42720700D01*
X96122180Y46420700D02*
X95882180Y46750700D01*
X96362180Y46750700D01*
X96122180Y46420700D01*
G36*
X96122180Y46420700D02*
G01*
X95882180Y46750700D01*
X96362180Y46750700D01*
X96122180Y46420700D01*
G37*
%TO.C,U1*%
X105483790Y38010799D02*
X105483790Y33210799D01*
X105483790Y38010799D02*
X105633790Y38010799D01*
X105483790Y33210799D02*
X105633790Y33210799D01*
X109333790Y33210799D02*
X109483790Y33210799D01*
X109483790Y38010799D02*
X109333790Y38010799D01*
X109483790Y33210799D02*
X109483790Y38010799D01*
X109663790Y32570799D02*
X109333790Y32810799D01*
X109663790Y33050799D01*
X109663790Y32570799D01*
G36*
X109663790Y32570799D02*
G01*
X109333790Y32810799D01*
X109663790Y33050799D01*
X109663790Y32570799D01*
G37*
%TO.C,C11*%
X119056267Y35347400D02*
X118763733Y35347400D01*
X119056267Y34327400D02*
X118763733Y34327400D01*
%TO.C,R21*%
X93750676Y3713400D02*
X94260124Y3713400D01*
X93750676Y2668400D02*
X94260124Y2668400D01*
%TO.C,R20*%
X112527000Y37448564D02*
X112527000Y36994436D01*
X113997000Y37448564D02*
X113997000Y36994436D01*
%TO.C,Q1*%
X102318180Y46314800D02*
X102318180Y45314800D01*
X102318180Y44194800D02*
X102318180Y43194800D01*
X102318180Y43194800D02*
X104138180Y43194800D01*
X104138180Y46314800D02*
X102318180Y46314800D01*
X104138180Y46264800D02*
X104138180Y46314800D01*
X104138180Y44364800D02*
X104138180Y45144800D01*
X104138180Y43194800D02*
X104138180Y43244800D01*
X104918180Y44804800D02*
X104438180Y44804800D01*
X104678180Y45134800D01*
X104918180Y44804800D01*
G36*
X104918180Y44804800D02*
G01*
X104438180Y44804800D01*
X104678180Y45134800D01*
X104918180Y44804800D01*
G37*
%TO.C,R5*%
X80699104Y30183653D02*
X80189656Y30183653D01*
X80699104Y29138653D02*
X80189656Y29138653D01*
%TO.C,R13*%
X95444025Y53018000D02*
X91089897Y53018000D01*
X95444025Y49598000D02*
X91089897Y49598000D01*
%TO.C,C3*%
X136644748Y36314250D02*
X137167252Y36314250D01*
X136644748Y34844250D02*
X137167252Y34844250D01*
%TO.C,R16*%
X85752000Y37148314D02*
X85752000Y36694186D01*
X87222000Y37148314D02*
X87222000Y36694186D01*
%TO.C,D2*%
X136051900Y17881500D02*
X139911900Y17881500D01*
X136051900Y15881500D02*
X136051900Y17881500D01*
X136051900Y15881500D02*
X139911900Y15881500D01*
%TO.C,U26*%
X89870000Y17670500D02*
X89870000Y9050500D01*
X89870000Y9050500D02*
X90245000Y9050500D01*
X90245000Y17670500D02*
X89870000Y17670500D01*
X107875000Y9050500D02*
X108250000Y9050500D01*
X108250000Y17670500D02*
X107875000Y17670500D01*
X108250000Y9050500D02*
X108250000Y17670500D01*
X90240000Y18930500D02*
X89770000Y18590500D01*
X89770000Y19270500D01*
X90240000Y18930500D01*
G36*
X90240000Y18930500D02*
G01*
X89770000Y18590500D01*
X89770000Y19270500D01*
X90240000Y18930500D01*
G37*
%TO.C,C10*%
X75002647Y33854153D02*
X74710113Y33854153D01*
X75002647Y32834153D02*
X74710113Y32834153D01*
%TO.C,C13*%
X110996000Y37467767D02*
X110996000Y37175233D01*
X112016000Y37467767D02*
X112016000Y37175233D01*
%TO.C,R11*%
X105662014Y31002499D02*
X105152566Y31002499D01*
X105662014Y29957499D02*
X105152566Y29957499D01*
%TO.C,C6*%
X93393800Y26057033D02*
X93393800Y26349567D01*
X94413800Y26057033D02*
X94413800Y26349567D01*
%TO.C,D9*%
X119176580Y70748400D02*
X115316580Y70748400D01*
X119176580Y70748400D02*
X119176580Y68748400D01*
X119176580Y68748400D02*
X115316580Y68748400D01*
%TO.C,C9*%
X95248000Y26116233D02*
X95248000Y26408767D01*
X96268000Y26116233D02*
X96268000Y26408767D01*
%TD*%
M02*
