%TF.GenerationSoftware,KiCad,Pcbnew,10.0.1*%
%TF.CreationDate,2026-05-11T22:49:01+09:00*%
%TF.ProjectId,DRC_POWER2026,4452435f-504f-4574-9552-323032362e6b,rev?*%
%TF.SameCoordinates,Original*%
%TF.FileFunction,Soldermask,Bot*%
%TF.FilePolarity,Negative*%
%FSLAX46Y46*%
G04 Gerber Fmt 4.6, Leading zero omitted, Abs format (unit mm)*
G04 Created by KiCad (PCBNEW 10.0.1) date 2026-05-11 22:49:01*
%MOMM*%
%LPD*%
G01*
G04 APERTURE LIST*
G04 Aperture macros list*
%AMRoundRect*
0 Rectangle with rounded corners*
0 $1 Rounding radius*
0 $2 $3 $4 $5 $6 $7 $8 $9 X,Y pos of 4 corners*
0 Add a 4 corners polygon primitive as box body*
4,1,4,$2,$3,$4,$5,$6,$7,$8,$9,$2,$3,0*
0 Add four circle primitives for the rounded corners*
1,1,$1+$1,$2,$3*
1,1,$1+$1,$4,$5*
1,1,$1+$1,$6,$7*
1,1,$1+$1,$8,$9*
0 Add four rect primitives between the rounded corners*
20,1,$1+$1,$2,$3,$4,$5,0*
20,1,$1+$1,$4,$5,$6,$7,0*
20,1,$1+$1,$6,$7,$8,$9,0*
20,1,$1+$1,$8,$9,$2,$3,0*%
G04 Aperture macros list end*
%ADD10C,3.543406*%
%ADD11C,0.010000*%
%ADD12C,3.200000*%
%ADD13R,1.300000X1.300000*%
%ADD14C,1.300000*%
%ADD15R,1.700000X1.700000*%
%ADD16C,1.700000*%
%ADD17R,0.900000X2.000000*%
%ADD18RoundRect,1.025000X-1.025000X-1.025000X1.025000X-1.025000X1.025000X1.025000X-1.025000X1.025000X0*%
%ADD19C,4.100000*%
%ADD20R,2.000000X0.900000*%
%ADD21RoundRect,1.025000X-1.025000X1.025000X-1.025000X-1.025000X1.025000X-1.025000X1.025000X1.025000X0*%
%ADD22RoundRect,0.250001X0.949999X0.949999X-0.949999X0.949999X-0.949999X-0.949999X0.949999X-0.949999X0*%
%ADD23C,2.400000*%
%ADD24RoundRect,0.250001X1.149999X1.149999X-1.149999X1.149999X-1.149999X-1.149999X1.149999X-1.149999X0*%
%ADD25C,2.800000*%
%ADD26R,1.400000X1.400000*%
%ADD27C,1.400000*%
%ADD28C,3.000000*%
%ADD29RoundRect,0.102000X-0.750000X-0.750000X0.750000X-0.750000X0.750000X0.750000X-0.750000X0.750000X0*%
%ADD30C,1.704000*%
%ADD31C,1.004000*%
%ADD32RoundRect,1.025000X1.025000X-1.025000X1.025000X1.025000X-1.025000X1.025000X-1.025000X-1.025000X0*%
%ADD33C,0.650000*%
%ADD34O,2.100000X1.000000*%
%ADD35O,1.800000X1.000000*%
%ADD36RoundRect,0.250001X-1.149999X-1.149999X1.149999X-1.149999X1.149999X1.149999X-1.149999X1.149999X0*%
%ADD37RoundRect,0.250000X0.300000X0.300000X-0.300000X0.300000X-0.300000X-0.300000X0.300000X-0.300000X0*%
%ADD38RoundRect,0.237500X-0.237500X0.250000X-0.237500X-0.250000X0.237500X-0.250000X0.237500X0.250000X0*%
%ADD39RoundRect,0.237500X-0.300000X-0.237500X0.300000X-0.237500X0.300000X0.237500X-0.300000X0.237500X0*%
%ADD40RoundRect,0.237500X0.250000X0.237500X-0.250000X0.237500X-0.250000X-0.237500X0.250000X-0.237500X0*%
%ADD41R,0.640000X2.000000*%
%ADD42RoundRect,0.250000X-0.412500X-1.100000X0.412500X-1.100000X0.412500X1.100000X-0.412500X1.100000X0*%
%ADD43RoundRect,0.237500X-0.250000X-0.237500X0.250000X-0.237500X0.250000X0.237500X-0.250000X0.237500X0*%
%ADD44RoundRect,0.249999X0.450001X1.425001X-0.450001X1.425001X-0.450001X-1.425001X0.450001X-1.425001X0*%
%ADD45RoundRect,0.250000X-0.300000X0.300000X-0.300000X-0.300000X0.300000X-0.300000X0.300000X0.300000X0*%
%ADD46RoundRect,0.250000X0.412500X1.100000X-0.412500X1.100000X-0.412500X-1.100000X0.412500X-1.100000X0*%
%ADD47RoundRect,0.237500X-0.237500X0.300000X-0.237500X-0.300000X0.237500X-0.300000X0.237500X0.300000X0*%
%ADD48R,2.000000X0.640000*%
%ADD49RoundRect,0.237500X0.300000X0.237500X-0.300000X0.237500X-0.300000X-0.237500X0.300000X-0.237500X0*%
%ADD50RoundRect,0.250000X-0.450000X0.350000X-0.450000X-0.350000X0.450000X-0.350000X0.450000X0.350000X0*%
%ADD51RoundRect,0.150000X0.512500X0.150000X-0.512500X0.150000X-0.512500X-0.150000X0.512500X-0.150000X0*%
%ADD52RoundRect,0.250000X-0.337500X-0.475000X0.337500X-0.475000X0.337500X0.475000X-0.337500X0.475000X0*%
%ADD53RoundRect,0.250000X-0.300000X-0.300000X0.300000X-0.300000X0.300000X0.300000X-0.300000X0.300000X0*%
%ADD54RoundRect,0.150000X-0.150000X0.987500X-0.150000X-0.987500X0.150000X-0.987500X0.150000X0.987500X0*%
%ADD55RoundRect,0.237500X0.237500X-0.300000X0.237500X0.300000X-0.237500X0.300000X-0.237500X-0.300000X0*%
G04 APERTURE END LIST*
D10*
X55771703Y96000000D02*
G75*
G02*
X52228297Y96000000I-1771703J0D01*
G01*
X52228297Y96000000D02*
G75*
G02*
X55771703Y96000000I1771703J0D01*
G01*
X55771703Y34000000D02*
G75*
G02*
X52228297Y34000000I-1771703J0D01*
G01*
X52228297Y34000000D02*
G75*
G02*
X55771703Y34000000I1771703J0D01*
G01*
X147771703Y96000000D02*
G75*
G02*
X144228297Y96000000I-1771703J0D01*
G01*
X144228297Y96000000D02*
G75*
G02*
X147771703Y96000000I1771703J0D01*
G01*
X147771703Y34000000D02*
G75*
G02*
X144228297Y34000000I-1771703J0D01*
G01*
X144228297Y34000000D02*
G75*
G02*
X147771703Y34000000I1771703J0D01*
G01*
D11*
%TO.C,U9*%
X74691780Y56101453D02*
X74793780Y56096453D01*
X74896780Y56088453D01*
X74998780Y56076453D01*
X75100780Y56060453D01*
X75201780Y56042453D01*
X75301780Y56020453D01*
X75401780Y55995453D01*
X75500780Y55966453D01*
X75597780Y55934453D01*
X75694780Y55899453D01*
X75789780Y55861453D01*
X75884780Y55819453D01*
X75976780Y55775453D01*
X76067780Y55727453D01*
X76157780Y55677453D01*
X76245780Y55623453D01*
X76331780Y55567453D01*
X76415780Y55508453D01*
X76497780Y55446453D01*
X76577780Y55381453D01*
X76655780Y55314453D01*
X76730780Y55244453D01*
X76803780Y55172453D01*
X76874780Y55097453D01*
X76942780Y55020453D01*
X77008780Y54941453D01*
X77071780Y54860453D01*
X77131780Y54776453D01*
X77189780Y54690453D01*
X77189780Y51316453D01*
X77131780Y51230453D01*
X77071780Y51146453D01*
X77008780Y51065453D01*
X76942780Y50986453D01*
X76874780Y50909453D01*
X76803780Y50834453D01*
X76730780Y50762453D01*
X76655780Y50692453D01*
X76577780Y50625453D01*
X76497780Y50560453D01*
X76415780Y50498453D01*
X76331780Y50439453D01*
X76245780Y50383453D01*
X76157780Y50329453D01*
X76067780Y50279453D01*
X75976780Y50231453D01*
X75884780Y50187453D01*
X75789780Y50145453D01*
X75694780Y50107453D01*
X75597780Y50072453D01*
X75500780Y50040453D01*
X75401780Y50011453D01*
X75301780Y49986453D01*
X75201780Y49964453D01*
X75100780Y49946453D01*
X74998780Y49930453D01*
X74896780Y49918453D01*
X74793780Y49910453D01*
X74691780Y49905453D01*
X74589780Y49903453D01*
X70589780Y49903453D01*
X70427780Y49907453D01*
X70265780Y49920453D01*
X70104780Y49941453D01*
X69944780Y49971453D01*
X69787780Y50009453D01*
X69631780Y50055453D01*
X69478780Y50109453D01*
X69328780Y50171453D01*
X69182780Y50241453D01*
X69039780Y50318453D01*
X68901780Y50403453D01*
X68767780Y50495453D01*
X68638780Y50594453D01*
X68515780Y50699453D01*
X68397780Y50811453D01*
X68285780Y50929453D01*
X68180780Y51052453D01*
X68081780Y51181453D01*
X67989780Y51315453D01*
X67904780Y51453453D01*
X67827780Y51596453D01*
X67757780Y51742453D01*
X67695780Y51892453D01*
X67641780Y52045453D01*
X67595780Y52201453D01*
X67557780Y52358453D01*
X67527780Y52518453D01*
X67506780Y52679453D01*
X67493780Y52841453D01*
X67489780Y53003453D01*
X67493780Y53165453D01*
X67506780Y53327453D01*
X67527780Y53488453D01*
X67557780Y53648453D01*
X67595780Y53805453D01*
X67641780Y53961453D01*
X67695780Y54114453D01*
X67757780Y54264453D01*
X67827780Y54410453D01*
X67904780Y54553453D01*
X67989780Y54691453D01*
X68081780Y54825453D01*
X68180780Y54954453D01*
X68285780Y55077453D01*
X68397780Y55195453D01*
X68515780Y55307453D01*
X68638780Y55412453D01*
X68767780Y55511453D01*
X68901780Y55603453D01*
X69039780Y55688453D01*
X69182780Y55765453D01*
X69328780Y55835453D01*
X69478780Y55897453D01*
X69631780Y55951453D01*
X69787780Y55997453D01*
X69944780Y56035453D01*
X70104780Y56065453D01*
X70265780Y56086453D01*
X70427780Y56099453D01*
X70589780Y56103453D01*
X74589780Y56103453D01*
X74691780Y56101453D01*
G36*
X74691780Y56101453D02*
G01*
X74793780Y56096453D01*
X74896780Y56088453D01*
X74998780Y56076453D01*
X75100780Y56060453D01*
X75201780Y56042453D01*
X75301780Y56020453D01*
X75401780Y55995453D01*
X75500780Y55966453D01*
X75597780Y55934453D01*
X75694780Y55899453D01*
X75789780Y55861453D01*
X75884780Y55819453D01*
X75976780Y55775453D01*
X76067780Y55727453D01*
X76157780Y55677453D01*
X76245780Y55623453D01*
X76331780Y55567453D01*
X76415780Y55508453D01*
X76497780Y55446453D01*
X76577780Y55381453D01*
X76655780Y55314453D01*
X76730780Y55244453D01*
X76803780Y55172453D01*
X76874780Y55097453D01*
X76942780Y55020453D01*
X77008780Y54941453D01*
X77071780Y54860453D01*
X77131780Y54776453D01*
X77189780Y54690453D01*
X77189780Y51316453D01*
X77131780Y51230453D01*
X77071780Y51146453D01*
X77008780Y51065453D01*
X76942780Y50986453D01*
X76874780Y50909453D01*
X76803780Y50834453D01*
X76730780Y50762453D01*
X76655780Y50692453D01*
X76577780Y50625453D01*
X76497780Y50560453D01*
X76415780Y50498453D01*
X76331780Y50439453D01*
X76245780Y50383453D01*
X76157780Y50329453D01*
X76067780Y50279453D01*
X75976780Y50231453D01*
X75884780Y50187453D01*
X75789780Y50145453D01*
X75694780Y50107453D01*
X75597780Y50072453D01*
X75500780Y50040453D01*
X75401780Y50011453D01*
X75301780Y49986453D01*
X75201780Y49964453D01*
X75100780Y49946453D01*
X74998780Y49930453D01*
X74896780Y49918453D01*
X74793780Y49910453D01*
X74691780Y49905453D01*
X74589780Y49903453D01*
X70589780Y49903453D01*
X70427780Y49907453D01*
X70265780Y49920453D01*
X70104780Y49941453D01*
X69944780Y49971453D01*
X69787780Y50009453D01*
X69631780Y50055453D01*
X69478780Y50109453D01*
X69328780Y50171453D01*
X69182780Y50241453D01*
X69039780Y50318453D01*
X68901780Y50403453D01*
X68767780Y50495453D01*
X68638780Y50594453D01*
X68515780Y50699453D01*
X68397780Y50811453D01*
X68285780Y50929453D01*
X68180780Y51052453D01*
X68081780Y51181453D01*
X67989780Y51315453D01*
X67904780Y51453453D01*
X67827780Y51596453D01*
X67757780Y51742453D01*
X67695780Y51892453D01*
X67641780Y52045453D01*
X67595780Y52201453D01*
X67557780Y52358453D01*
X67527780Y52518453D01*
X67506780Y52679453D01*
X67493780Y52841453D01*
X67489780Y53003453D01*
X67493780Y53165453D01*
X67506780Y53327453D01*
X67527780Y53488453D01*
X67557780Y53648453D01*
X67595780Y53805453D01*
X67641780Y53961453D01*
X67695780Y54114453D01*
X67757780Y54264453D01*
X67827780Y54410453D01*
X67904780Y54553453D01*
X67989780Y54691453D01*
X68081780Y54825453D01*
X68180780Y54954453D01*
X68285780Y55077453D01*
X68397780Y55195453D01*
X68515780Y55307453D01*
X68638780Y55412453D01*
X68767780Y55511453D01*
X68901780Y55603453D01*
X69039780Y55688453D01*
X69182780Y55765453D01*
X69328780Y55835453D01*
X69478780Y55897453D01*
X69631780Y55951453D01*
X69787780Y55997453D01*
X69944780Y56035453D01*
X70104780Y56065453D01*
X70265780Y56086453D01*
X70427780Y56099453D01*
X70589780Y56103453D01*
X74589780Y56103453D01*
X74691780Y56101453D01*
G37*
X84751780Y56099453D02*
X84913780Y56086453D01*
X85074780Y56065453D01*
X85234780Y56035453D01*
X85391780Y55997453D01*
X85547780Y55951453D01*
X85700780Y55897453D01*
X85850780Y55835453D01*
X85996780Y55765453D01*
X86139780Y55688453D01*
X86277780Y55603453D01*
X86411780Y55511453D01*
X86540780Y55412453D01*
X86663780Y55307453D01*
X86781780Y55195453D01*
X86893780Y55077453D01*
X86998780Y54954453D01*
X87097780Y54825453D01*
X87189780Y54691453D01*
X87274780Y54553453D01*
X87351780Y54410453D01*
X87421780Y54264453D01*
X87483780Y54114453D01*
X87537780Y53961453D01*
X87583780Y53805453D01*
X87621780Y53648453D01*
X87651780Y53488453D01*
X87672780Y53327453D01*
X87685780Y53165453D01*
X87689780Y53003453D01*
X87685780Y52841453D01*
X87672780Y52679453D01*
X87651780Y52518453D01*
X87621780Y52358453D01*
X87583780Y52201453D01*
X87537780Y52045453D01*
X87483780Y51892453D01*
X87421780Y51742453D01*
X87351780Y51596453D01*
X87274780Y51453453D01*
X87189780Y51315453D01*
X87097780Y51181453D01*
X86998780Y51052453D01*
X86893780Y50929453D01*
X86781780Y50811453D01*
X86663780Y50699453D01*
X86540780Y50594453D01*
X86411780Y50495453D01*
X86277780Y50403453D01*
X86139780Y50318453D01*
X85996780Y50241453D01*
X85850780Y50171453D01*
X85700780Y50109453D01*
X85547780Y50055453D01*
X85391780Y50009453D01*
X85234780Y49971453D01*
X85074780Y49941453D01*
X84913780Y49920453D01*
X84751780Y49907453D01*
X84589780Y49903453D01*
X80589780Y49903453D01*
X80487780Y49905453D01*
X80385780Y49910453D01*
X80282780Y49918453D01*
X80180780Y49930453D01*
X80078780Y49946453D01*
X79977780Y49964453D01*
X79877780Y49986453D01*
X79777780Y50011453D01*
X79678780Y50040453D01*
X79581780Y50072453D01*
X79484780Y50107453D01*
X79389780Y50145453D01*
X79294780Y50187453D01*
X79202780Y50231453D01*
X79111780Y50279453D01*
X79021780Y50329453D01*
X78933780Y50383453D01*
X78847780Y50439453D01*
X78763780Y50498453D01*
X78681780Y50560453D01*
X78601780Y50625453D01*
X78523780Y50692453D01*
X78448780Y50762453D01*
X78375780Y50834453D01*
X78304780Y50909453D01*
X78236780Y50986453D01*
X78170780Y51065453D01*
X78107780Y51146453D01*
X78047780Y51230453D01*
X77989780Y51316453D01*
X77989780Y54690453D01*
X78047780Y54776453D01*
X78107780Y54860453D01*
X78170780Y54941453D01*
X78236780Y55020453D01*
X78304780Y55097453D01*
X78375780Y55172453D01*
X78448780Y55244453D01*
X78523780Y55314453D01*
X78601780Y55381453D01*
X78681780Y55446453D01*
X78763780Y55508453D01*
X78847780Y55567453D01*
X78933780Y55623453D01*
X79021780Y55677453D01*
X79111780Y55727453D01*
X79202780Y55775453D01*
X79294780Y55819453D01*
X79389780Y55861453D01*
X79484780Y55899453D01*
X79581780Y55934453D01*
X79678780Y55966453D01*
X79777780Y55995453D01*
X79877780Y56020453D01*
X79977780Y56042453D01*
X80078780Y56060453D01*
X80180780Y56076453D01*
X80282780Y56088453D01*
X80385780Y56096453D01*
X80487780Y56101453D01*
X80589780Y56103453D01*
X84589780Y56103453D01*
X84751780Y56099453D01*
G36*
X84751780Y56099453D02*
G01*
X84913780Y56086453D01*
X85074780Y56065453D01*
X85234780Y56035453D01*
X85391780Y55997453D01*
X85547780Y55951453D01*
X85700780Y55897453D01*
X85850780Y55835453D01*
X85996780Y55765453D01*
X86139780Y55688453D01*
X86277780Y55603453D01*
X86411780Y55511453D01*
X86540780Y55412453D01*
X86663780Y55307453D01*
X86781780Y55195453D01*
X86893780Y55077453D01*
X86998780Y54954453D01*
X87097780Y54825453D01*
X87189780Y54691453D01*
X87274780Y54553453D01*
X87351780Y54410453D01*
X87421780Y54264453D01*
X87483780Y54114453D01*
X87537780Y53961453D01*
X87583780Y53805453D01*
X87621780Y53648453D01*
X87651780Y53488453D01*
X87672780Y53327453D01*
X87685780Y53165453D01*
X87689780Y53003453D01*
X87685780Y52841453D01*
X87672780Y52679453D01*
X87651780Y52518453D01*
X87621780Y52358453D01*
X87583780Y52201453D01*
X87537780Y52045453D01*
X87483780Y51892453D01*
X87421780Y51742453D01*
X87351780Y51596453D01*
X87274780Y51453453D01*
X87189780Y51315453D01*
X87097780Y51181453D01*
X86998780Y51052453D01*
X86893780Y50929453D01*
X86781780Y50811453D01*
X86663780Y50699453D01*
X86540780Y50594453D01*
X86411780Y50495453D01*
X86277780Y50403453D01*
X86139780Y50318453D01*
X85996780Y50241453D01*
X85850780Y50171453D01*
X85700780Y50109453D01*
X85547780Y50055453D01*
X85391780Y50009453D01*
X85234780Y49971453D01*
X85074780Y49941453D01*
X84913780Y49920453D01*
X84751780Y49907453D01*
X84589780Y49903453D01*
X80589780Y49903453D01*
X80487780Y49905453D01*
X80385780Y49910453D01*
X80282780Y49918453D01*
X80180780Y49930453D01*
X80078780Y49946453D01*
X79977780Y49964453D01*
X79877780Y49986453D01*
X79777780Y50011453D01*
X79678780Y50040453D01*
X79581780Y50072453D01*
X79484780Y50107453D01*
X79389780Y50145453D01*
X79294780Y50187453D01*
X79202780Y50231453D01*
X79111780Y50279453D01*
X79021780Y50329453D01*
X78933780Y50383453D01*
X78847780Y50439453D01*
X78763780Y50498453D01*
X78681780Y50560453D01*
X78601780Y50625453D01*
X78523780Y50692453D01*
X78448780Y50762453D01*
X78375780Y50834453D01*
X78304780Y50909453D01*
X78236780Y50986453D01*
X78170780Y51065453D01*
X78107780Y51146453D01*
X78047780Y51230453D01*
X77989780Y51316453D01*
X77989780Y54690453D01*
X78047780Y54776453D01*
X78107780Y54860453D01*
X78170780Y54941453D01*
X78236780Y55020453D01*
X78304780Y55097453D01*
X78375780Y55172453D01*
X78448780Y55244453D01*
X78523780Y55314453D01*
X78601780Y55381453D01*
X78681780Y55446453D01*
X78763780Y55508453D01*
X78847780Y55567453D01*
X78933780Y55623453D01*
X79021780Y55677453D01*
X79111780Y55727453D01*
X79202780Y55775453D01*
X79294780Y55819453D01*
X79389780Y55861453D01*
X79484780Y55899453D01*
X79581780Y55934453D01*
X79678780Y55966453D01*
X79777780Y55995453D01*
X79877780Y56020453D01*
X79977780Y56042453D01*
X80078780Y56060453D01*
X80180780Y56076453D01*
X80282780Y56088453D01*
X80385780Y56096453D01*
X80487780Y56101453D01*
X80589780Y56103453D01*
X84589780Y56103453D01*
X84751780Y56099453D01*
G37*
%TO.C,U13*%
X118768000Y57232000D02*
X118870000Y57227000D01*
X118973000Y57219000D01*
X119075000Y57207000D01*
X119177000Y57191000D01*
X119278000Y57173000D01*
X119378000Y57151000D01*
X119478000Y57126000D01*
X119577000Y57097000D01*
X119674000Y57065000D01*
X119771000Y57030000D01*
X119866000Y56992000D01*
X119961000Y56950000D01*
X120053000Y56906000D01*
X120144000Y56858000D01*
X120234000Y56808000D01*
X120322000Y56754000D01*
X120408000Y56698000D01*
X120492000Y56639000D01*
X120574000Y56577000D01*
X120654000Y56512000D01*
X120732000Y56445000D01*
X120807000Y56375000D01*
X120880000Y56303000D01*
X120951000Y56228000D01*
X121019000Y56151000D01*
X121085000Y56072000D01*
X121148000Y55991000D01*
X121208000Y55907000D01*
X121266000Y55821000D01*
X121266000Y52447000D01*
X121208000Y52361000D01*
X121148000Y52277000D01*
X121085000Y52196000D01*
X121019000Y52117000D01*
X120951000Y52040000D01*
X120880000Y51965000D01*
X120807000Y51893000D01*
X120732000Y51823000D01*
X120654000Y51756000D01*
X120574000Y51691000D01*
X120492000Y51629000D01*
X120408000Y51570000D01*
X120322000Y51514000D01*
X120234000Y51460000D01*
X120144000Y51410000D01*
X120053000Y51362000D01*
X119961000Y51318000D01*
X119866000Y51276000D01*
X119771000Y51238000D01*
X119674000Y51203000D01*
X119577000Y51171000D01*
X119478000Y51142000D01*
X119378000Y51117000D01*
X119278000Y51095000D01*
X119177000Y51077000D01*
X119075000Y51061000D01*
X118973000Y51049000D01*
X118870000Y51041000D01*
X118768000Y51036000D01*
X118666000Y51034000D01*
X114666000Y51034000D01*
X114504000Y51038000D01*
X114342000Y51051000D01*
X114181000Y51072000D01*
X114021000Y51102000D01*
X113864000Y51140000D01*
X113708000Y51186000D01*
X113555000Y51240000D01*
X113405000Y51302000D01*
X113259000Y51372000D01*
X113116000Y51449000D01*
X112978000Y51534000D01*
X112844000Y51626000D01*
X112715000Y51725000D01*
X112592000Y51830000D01*
X112474000Y51942000D01*
X112362000Y52060000D01*
X112257000Y52183000D01*
X112158000Y52312000D01*
X112066000Y52446000D01*
X111981000Y52584000D01*
X111904000Y52727000D01*
X111834000Y52873000D01*
X111772000Y53023000D01*
X111718000Y53176000D01*
X111672000Y53332000D01*
X111634000Y53489000D01*
X111604000Y53649000D01*
X111583000Y53810000D01*
X111570000Y53972000D01*
X111566000Y54134000D01*
X111570000Y54296000D01*
X111583000Y54458000D01*
X111604000Y54619000D01*
X111634000Y54779000D01*
X111672000Y54936000D01*
X111718000Y55092000D01*
X111772000Y55245000D01*
X111834000Y55395000D01*
X111904000Y55541000D01*
X111981000Y55684000D01*
X112066000Y55822000D01*
X112158000Y55956000D01*
X112257000Y56085000D01*
X112362000Y56208000D01*
X112474000Y56326000D01*
X112592000Y56438000D01*
X112715000Y56543000D01*
X112844000Y56642000D01*
X112978000Y56734000D01*
X113116000Y56819000D01*
X113259000Y56896000D01*
X113405000Y56966000D01*
X113555000Y57028000D01*
X113708000Y57082000D01*
X113864000Y57128000D01*
X114021000Y57166000D01*
X114181000Y57196000D01*
X114342000Y57217000D01*
X114504000Y57230000D01*
X114666000Y57234000D01*
X118666000Y57234000D01*
X118768000Y57232000D01*
G36*
X118768000Y57232000D02*
G01*
X118870000Y57227000D01*
X118973000Y57219000D01*
X119075000Y57207000D01*
X119177000Y57191000D01*
X119278000Y57173000D01*
X119378000Y57151000D01*
X119478000Y57126000D01*
X119577000Y57097000D01*
X119674000Y57065000D01*
X119771000Y57030000D01*
X119866000Y56992000D01*
X119961000Y56950000D01*
X120053000Y56906000D01*
X120144000Y56858000D01*
X120234000Y56808000D01*
X120322000Y56754000D01*
X120408000Y56698000D01*
X120492000Y56639000D01*
X120574000Y56577000D01*
X120654000Y56512000D01*
X120732000Y56445000D01*
X120807000Y56375000D01*
X120880000Y56303000D01*
X120951000Y56228000D01*
X121019000Y56151000D01*
X121085000Y56072000D01*
X121148000Y55991000D01*
X121208000Y55907000D01*
X121266000Y55821000D01*
X121266000Y52447000D01*
X121208000Y52361000D01*
X121148000Y52277000D01*
X121085000Y52196000D01*
X121019000Y52117000D01*
X120951000Y52040000D01*
X120880000Y51965000D01*
X120807000Y51893000D01*
X120732000Y51823000D01*
X120654000Y51756000D01*
X120574000Y51691000D01*
X120492000Y51629000D01*
X120408000Y51570000D01*
X120322000Y51514000D01*
X120234000Y51460000D01*
X120144000Y51410000D01*
X120053000Y51362000D01*
X119961000Y51318000D01*
X119866000Y51276000D01*
X119771000Y51238000D01*
X119674000Y51203000D01*
X119577000Y51171000D01*
X119478000Y51142000D01*
X119378000Y51117000D01*
X119278000Y51095000D01*
X119177000Y51077000D01*
X119075000Y51061000D01*
X118973000Y51049000D01*
X118870000Y51041000D01*
X118768000Y51036000D01*
X118666000Y51034000D01*
X114666000Y51034000D01*
X114504000Y51038000D01*
X114342000Y51051000D01*
X114181000Y51072000D01*
X114021000Y51102000D01*
X113864000Y51140000D01*
X113708000Y51186000D01*
X113555000Y51240000D01*
X113405000Y51302000D01*
X113259000Y51372000D01*
X113116000Y51449000D01*
X112978000Y51534000D01*
X112844000Y51626000D01*
X112715000Y51725000D01*
X112592000Y51830000D01*
X112474000Y51942000D01*
X112362000Y52060000D01*
X112257000Y52183000D01*
X112158000Y52312000D01*
X112066000Y52446000D01*
X111981000Y52584000D01*
X111904000Y52727000D01*
X111834000Y52873000D01*
X111772000Y53023000D01*
X111718000Y53176000D01*
X111672000Y53332000D01*
X111634000Y53489000D01*
X111604000Y53649000D01*
X111583000Y53810000D01*
X111570000Y53972000D01*
X111566000Y54134000D01*
X111570000Y54296000D01*
X111583000Y54458000D01*
X111604000Y54619000D01*
X111634000Y54779000D01*
X111672000Y54936000D01*
X111718000Y55092000D01*
X111772000Y55245000D01*
X111834000Y55395000D01*
X111904000Y55541000D01*
X111981000Y55684000D01*
X112066000Y55822000D01*
X112158000Y55956000D01*
X112257000Y56085000D01*
X112362000Y56208000D01*
X112474000Y56326000D01*
X112592000Y56438000D01*
X112715000Y56543000D01*
X112844000Y56642000D01*
X112978000Y56734000D01*
X113116000Y56819000D01*
X113259000Y56896000D01*
X113405000Y56966000D01*
X113555000Y57028000D01*
X113708000Y57082000D01*
X113864000Y57128000D01*
X114021000Y57166000D01*
X114181000Y57196000D01*
X114342000Y57217000D01*
X114504000Y57230000D01*
X114666000Y57234000D01*
X118666000Y57234000D01*
X118768000Y57232000D01*
G37*
X128828000Y57230000D02*
X128990000Y57217000D01*
X129151000Y57196000D01*
X129311000Y57166000D01*
X129468000Y57128000D01*
X129624000Y57082000D01*
X129777000Y57028000D01*
X129927000Y56966000D01*
X130073000Y56896000D01*
X130216000Y56819000D01*
X130354000Y56734000D01*
X130488000Y56642000D01*
X130617000Y56543000D01*
X130740000Y56438000D01*
X130858000Y56326000D01*
X130970000Y56208000D01*
X131075000Y56085000D01*
X131174000Y55956000D01*
X131266000Y55822000D01*
X131351000Y55684000D01*
X131428000Y55541000D01*
X131498000Y55395000D01*
X131560000Y55245000D01*
X131614000Y55092000D01*
X131660000Y54936000D01*
X131698000Y54779000D01*
X131728000Y54619000D01*
X131749000Y54458000D01*
X131762000Y54296000D01*
X131766000Y54134000D01*
X131762000Y53972000D01*
X131749000Y53810000D01*
X131728000Y53649000D01*
X131698000Y53489000D01*
X131660000Y53332000D01*
X131614000Y53176000D01*
X131560000Y53023000D01*
X131498000Y52873000D01*
X131428000Y52727000D01*
X131351000Y52584000D01*
X131266000Y52446000D01*
X131174000Y52312000D01*
X131075000Y52183000D01*
X130970000Y52060000D01*
X130858000Y51942000D01*
X130740000Y51830000D01*
X130617000Y51725000D01*
X130488000Y51626000D01*
X130354000Y51534000D01*
X130216000Y51449000D01*
X130073000Y51372000D01*
X129927000Y51302000D01*
X129777000Y51240000D01*
X129624000Y51186000D01*
X129468000Y51140000D01*
X129311000Y51102000D01*
X129151000Y51072000D01*
X128990000Y51051000D01*
X128828000Y51038000D01*
X128666000Y51034000D01*
X124666000Y51034000D01*
X124564000Y51036000D01*
X124462000Y51041000D01*
X124359000Y51049000D01*
X124257000Y51061000D01*
X124155000Y51077000D01*
X124054000Y51095000D01*
X123954000Y51117000D01*
X123854000Y51142000D01*
X123755000Y51171000D01*
X123658000Y51203000D01*
X123561000Y51238000D01*
X123466000Y51276000D01*
X123371000Y51318000D01*
X123279000Y51362000D01*
X123188000Y51410000D01*
X123098000Y51460000D01*
X123010000Y51514000D01*
X122924000Y51570000D01*
X122840000Y51629000D01*
X122758000Y51691000D01*
X122678000Y51756000D01*
X122600000Y51823000D01*
X122525000Y51893000D01*
X122452000Y51965000D01*
X122381000Y52040000D01*
X122313000Y52117000D01*
X122247000Y52196000D01*
X122184000Y52277000D01*
X122124000Y52361000D01*
X122066000Y52447000D01*
X122066000Y55821000D01*
X122124000Y55907000D01*
X122184000Y55991000D01*
X122247000Y56072000D01*
X122313000Y56151000D01*
X122381000Y56228000D01*
X122452000Y56303000D01*
X122525000Y56375000D01*
X122600000Y56445000D01*
X122678000Y56512000D01*
X122758000Y56577000D01*
X122840000Y56639000D01*
X122924000Y56698000D01*
X123010000Y56754000D01*
X123098000Y56808000D01*
X123188000Y56858000D01*
X123279000Y56906000D01*
X123371000Y56950000D01*
X123466000Y56992000D01*
X123561000Y57030000D01*
X123658000Y57065000D01*
X123755000Y57097000D01*
X123854000Y57126000D01*
X123954000Y57151000D01*
X124054000Y57173000D01*
X124155000Y57191000D01*
X124257000Y57207000D01*
X124359000Y57219000D01*
X124462000Y57227000D01*
X124564000Y57232000D01*
X124666000Y57234000D01*
X128666000Y57234000D01*
X128828000Y57230000D01*
G36*
X128828000Y57230000D02*
G01*
X128990000Y57217000D01*
X129151000Y57196000D01*
X129311000Y57166000D01*
X129468000Y57128000D01*
X129624000Y57082000D01*
X129777000Y57028000D01*
X129927000Y56966000D01*
X130073000Y56896000D01*
X130216000Y56819000D01*
X130354000Y56734000D01*
X130488000Y56642000D01*
X130617000Y56543000D01*
X130740000Y56438000D01*
X130858000Y56326000D01*
X130970000Y56208000D01*
X131075000Y56085000D01*
X131174000Y55956000D01*
X131266000Y55822000D01*
X131351000Y55684000D01*
X131428000Y55541000D01*
X131498000Y55395000D01*
X131560000Y55245000D01*
X131614000Y55092000D01*
X131660000Y54936000D01*
X131698000Y54779000D01*
X131728000Y54619000D01*
X131749000Y54458000D01*
X131762000Y54296000D01*
X131766000Y54134000D01*
X131762000Y53972000D01*
X131749000Y53810000D01*
X131728000Y53649000D01*
X131698000Y53489000D01*
X131660000Y53332000D01*
X131614000Y53176000D01*
X131560000Y53023000D01*
X131498000Y52873000D01*
X131428000Y52727000D01*
X131351000Y52584000D01*
X131266000Y52446000D01*
X131174000Y52312000D01*
X131075000Y52183000D01*
X130970000Y52060000D01*
X130858000Y51942000D01*
X130740000Y51830000D01*
X130617000Y51725000D01*
X130488000Y51626000D01*
X130354000Y51534000D01*
X130216000Y51449000D01*
X130073000Y51372000D01*
X129927000Y51302000D01*
X129777000Y51240000D01*
X129624000Y51186000D01*
X129468000Y51140000D01*
X129311000Y51102000D01*
X129151000Y51072000D01*
X128990000Y51051000D01*
X128828000Y51038000D01*
X128666000Y51034000D01*
X124666000Y51034000D01*
X124564000Y51036000D01*
X124462000Y51041000D01*
X124359000Y51049000D01*
X124257000Y51061000D01*
X124155000Y51077000D01*
X124054000Y51095000D01*
X123954000Y51117000D01*
X123854000Y51142000D01*
X123755000Y51171000D01*
X123658000Y51203000D01*
X123561000Y51238000D01*
X123466000Y51276000D01*
X123371000Y51318000D01*
X123279000Y51362000D01*
X123188000Y51410000D01*
X123098000Y51460000D01*
X123010000Y51514000D01*
X122924000Y51570000D01*
X122840000Y51629000D01*
X122758000Y51691000D01*
X122678000Y51756000D01*
X122600000Y51823000D01*
X122525000Y51893000D01*
X122452000Y51965000D01*
X122381000Y52040000D01*
X122313000Y52117000D01*
X122247000Y52196000D01*
X122184000Y52277000D01*
X122124000Y52361000D01*
X122066000Y52447000D01*
X122066000Y55821000D01*
X122124000Y55907000D01*
X122184000Y55991000D01*
X122247000Y56072000D01*
X122313000Y56151000D01*
X122381000Y56228000D01*
X122452000Y56303000D01*
X122525000Y56375000D01*
X122600000Y56445000D01*
X122678000Y56512000D01*
X122758000Y56577000D01*
X122840000Y56639000D01*
X122924000Y56698000D01*
X123010000Y56754000D01*
X123098000Y56808000D01*
X123188000Y56858000D01*
X123279000Y56906000D01*
X123371000Y56950000D01*
X123466000Y56992000D01*
X123561000Y57030000D01*
X123658000Y57065000D01*
X123755000Y57097000D01*
X123854000Y57126000D01*
X123954000Y57151000D01*
X124054000Y57173000D01*
X124155000Y57191000D01*
X124257000Y57207000D01*
X124359000Y57219000D01*
X124462000Y57227000D01*
X124564000Y57232000D01*
X124666000Y57234000D01*
X128666000Y57234000D01*
X128828000Y57230000D01*
G37*
%TD*%
D12*
%TO.C,REF\u002A\u002A*%
X146000000Y96000000D03*
%TD*%
D13*
%TO.C,U3*%
X134239000Y35579250D03*
D14*
X134239000Y33039250D03*
X134239000Y30499250D03*
%TD*%
D15*
%TO.C,U16*%
X82157900Y23641675D03*
D16*
X82157900Y21641675D03*
X82157900Y19641675D03*
X82157900Y17641675D03*
X82157900Y15641675D03*
X87037900Y15641675D03*
X87037900Y17641675D03*
X87037900Y19641675D03*
X87037900Y21641675D03*
X87037900Y23641675D03*
%TD*%
D15*
%TO.C,U24*%
X126129402Y23669616D03*
D16*
X126129402Y21669616D03*
X126129402Y19669616D03*
X126129402Y17669616D03*
X126129402Y15669616D03*
X131009402Y15669616D03*
X131009402Y17669616D03*
X131009402Y19669616D03*
X131009402Y21669616D03*
X131009402Y23669616D03*
%TD*%
D17*
%TO.C,J2*%
X107441999Y97408999D03*
X120941999Y97408999D03*
D18*
X117791999Y91408999D03*
D19*
X110591999Y91408999D03*
%TD*%
D20*
%TO.C,J10*%
X140581780Y55098135D03*
X140581780Y41598135D03*
D21*
X134581780Y51948135D03*
D19*
X134581780Y44748135D03*
%TD*%
D22*
%TO.C,C8*%
X62805232Y84074000D03*
D23*
X55305232Y84074000D03*
%TD*%
D15*
%TO.C,U21*%
X118880402Y12427616D03*
D16*
X118880402Y10427616D03*
X118880402Y8427616D03*
X118880402Y6427616D03*
X118880402Y4427616D03*
X123760402Y4427616D03*
X123760402Y6427616D03*
X123760402Y8427616D03*
X123760402Y10427616D03*
X123760402Y12427616D03*
%TD*%
D15*
%TO.C,U18*%
X67792600Y12436500D03*
D16*
X67792600Y10436500D03*
X67792600Y8436500D03*
X67792600Y6436500D03*
X67792600Y4436500D03*
X72672600Y4436500D03*
X72672600Y6436500D03*
X72672600Y8436500D03*
X72672600Y10436500D03*
X72672600Y12436500D03*
%TD*%
D15*
%TO.C,U19*%
X74966786Y12436500D03*
D16*
X74966786Y10436500D03*
X74966786Y8436500D03*
X74966786Y6436500D03*
X74966786Y4436500D03*
X79846786Y4436500D03*
X79846786Y6436500D03*
X79846786Y8436500D03*
X79846786Y10436500D03*
X79846786Y12436500D03*
%TD*%
D24*
%TO.C,J8*%
X70786000Y97028000D03*
D25*
X65786000Y97028000D03*
%TD*%
D22*
%TO.C,C15*%
X144945899Y84201000D03*
D23*
X137445899Y84201000D03*
%TD*%
D17*
%TO.C,J1*%
X79483000Y97394000D03*
X92983000Y97394000D03*
D18*
X89833000Y91394000D03*
D19*
X82633000Y91394000D03*
%TD*%
D12*
%TO.C,REF\u002A\u002A*%
X146000000Y34000000D03*
%TD*%
D26*
%TO.C,K2*%
X97020780Y41185300D03*
D27*
X97020780Y48805300D03*
X97020780Y53885300D03*
X97020780Y58965300D03*
X89400780Y58965300D03*
X89400780Y53885300D03*
X89400780Y48805300D03*
X89400780Y41185300D03*
%TD*%
D12*
%TO.C,REF\u002A\u002A*%
X54000000Y96000000D03*
%TD*%
D15*
%TO.C,U25*%
X126043402Y12459616D03*
D16*
X126043402Y10459616D03*
X126043402Y8459616D03*
X126043402Y6459616D03*
X126043402Y4459616D03*
X130923402Y4459616D03*
X130923402Y6459616D03*
X130923402Y8459616D03*
X130923402Y10459616D03*
X130923402Y12459616D03*
%TD*%
D28*
%TO.C,U10*%
X117056326Y85985122D03*
X117056326Y82185122D03*
X117056326Y78385122D03*
X108656326Y73085122D03*
X125456326Y73085122D03*
X120856326Y64685122D03*
X117056326Y64685122D03*
X113256326Y64685122D03*
X120856326Y72685122D03*
X117056326Y72685122D03*
X113256326Y72685122D03*
%TD*%
D15*
%TO.C,U15*%
X74966786Y23641675D03*
D16*
X74966786Y21641675D03*
X74966786Y19641675D03*
X74966786Y17641675D03*
X74966786Y15641675D03*
X79846786Y15641675D03*
X79846786Y17641675D03*
X79846786Y19641675D03*
X79846786Y21641675D03*
X79846786Y23641675D03*
%TD*%
D22*
%TO.C,C12*%
X144945899Y65667000D03*
D23*
X137445899Y65667000D03*
%TD*%
D29*
%TO.C,U9*%
X75679780Y31603453D03*
D30*
X77589780Y31603453D03*
X79499780Y31603453D03*
D31*
X80589780Y50953453D03*
X81919780Y50953453D03*
X83249780Y50953453D03*
X84579780Y50953453D03*
X85794680Y51344953D03*
X86539380Y52369953D03*
X86539380Y53636853D03*
X85794680Y54661853D03*
X84579780Y55053453D03*
X83249780Y55053453D03*
X81919780Y55053453D03*
X80589780Y55053453D03*
X79384880Y54661853D03*
X78640180Y53636853D03*
X78640180Y52369953D03*
X79384880Y51344953D03*
X70589780Y50953453D03*
X71919780Y50953453D03*
X73249780Y50953453D03*
X74579780Y50953453D03*
X75794680Y51344953D03*
X76539380Y52369953D03*
X76539380Y53636853D03*
X75794680Y54661853D03*
X74579780Y55053453D03*
X73249780Y55053453D03*
X71919780Y55053453D03*
X70589780Y55053453D03*
X69384880Y54661853D03*
X68640180Y53636853D03*
X68640180Y52369953D03*
X69384880Y51344953D03*
%TD*%
D29*
%TO.C,U13*%
X119756000Y32734000D03*
D30*
X121666000Y32734000D03*
X123576000Y32734000D03*
D31*
X124666000Y52084000D03*
X125996000Y52084000D03*
X127326000Y52084000D03*
X128656000Y52084000D03*
X129870900Y52475500D03*
X130615600Y53500500D03*
X130615600Y54767400D03*
X129870900Y55792400D03*
X128656000Y56184000D03*
X127326000Y56184000D03*
X125996000Y56184000D03*
X124666000Y56184000D03*
X123461100Y55792400D03*
X122716400Y54767400D03*
X122716400Y53500500D03*
X123461100Y52475500D03*
X114666000Y52084000D03*
X115996000Y52084000D03*
X117326000Y52084000D03*
X118656000Y52084000D03*
X119870900Y52475500D03*
X120615600Y53500500D03*
X120615600Y54767400D03*
X119870900Y55792400D03*
X118656000Y56184000D03*
X117326000Y56184000D03*
X115996000Y56184000D03*
X114666000Y56184000D03*
X113461100Y55792400D03*
X112716400Y54767400D03*
X112716400Y53500500D03*
X113461100Y52475500D03*
%TD*%
D20*
%TO.C,J7*%
X58673780Y41256000D03*
X58673780Y54756000D03*
D32*
X64673780Y44406000D03*
D19*
X64673780Y51606000D03*
%TD*%
D15*
%TO.C,U20*%
X82165800Y12436500D03*
D16*
X82165800Y10436500D03*
X82165800Y8436500D03*
X82165800Y6436500D03*
X82165800Y4436500D03*
X87045800Y4436500D03*
X87045800Y6436500D03*
X87045800Y8436500D03*
X87045800Y10436500D03*
X87045800Y12436500D03*
%TD*%
D24*
%TO.C,J11*%
X134584000Y97249500D03*
D25*
X129584000Y97249500D03*
%TD*%
D15*
%TO.C,U22*%
X111785402Y23669616D03*
D16*
X111785402Y21669616D03*
X111785402Y19669616D03*
X111785402Y17669616D03*
X111785402Y15669616D03*
X116665402Y15669616D03*
X116665402Y17669616D03*
X116665402Y19669616D03*
X116665402Y21669616D03*
X116665402Y23669616D03*
%TD*%
D15*
%TO.C,U5*%
X67789400Y23641675D03*
D16*
X67789400Y21641675D03*
X67789400Y19641675D03*
X67789400Y17641675D03*
X67789400Y15641675D03*
X72669400Y15641675D03*
X72669400Y17641675D03*
X72669400Y19641675D03*
X72669400Y21641675D03*
X72669400Y23641675D03*
%TD*%
D15*
%TO.C,U23*%
X118963402Y23669616D03*
D16*
X118963402Y21669616D03*
X118963402Y19669616D03*
X118963402Y17669616D03*
X118963402Y15669616D03*
X123843402Y15669616D03*
X123843402Y17669616D03*
X123843402Y19669616D03*
X123843402Y21669616D03*
X123843402Y23669616D03*
%TD*%
D12*
%TO.C,REF\u002A\u002A*%
X54000000Y34000000D03*
%TD*%
D26*
%TO.C,K3*%
X109727780Y41255392D03*
D27*
X109727780Y48875392D03*
X109727780Y53955392D03*
X109727780Y59035392D03*
X102107780Y59035392D03*
X102107780Y53955392D03*
X102107780Y48875392D03*
X102107780Y41255392D03*
%TD*%
D15*
%TO.C,U17*%
X111778402Y12459616D03*
D16*
X111778402Y10459616D03*
X111778402Y8459616D03*
X111778402Y6459616D03*
X111778402Y4459616D03*
X116658402Y4459616D03*
X116658402Y6459616D03*
X116658402Y8459616D03*
X116658402Y10459616D03*
X116658402Y12459616D03*
%TD*%
D33*
%TO.C,J3*%
X143657900Y11578500D03*
X143657900Y17358500D03*
D34*
X143157900Y10148500D03*
D35*
X147337900Y10148500D03*
D34*
X143157900Y18788500D03*
D35*
X147337900Y18788500D03*
%TD*%
D28*
%TO.C,U6*%
X82803780Y85935300D03*
X82803780Y82135300D03*
X82803780Y78335300D03*
X74403780Y73035300D03*
X91203780Y73035300D03*
X86603780Y64635300D03*
X82803780Y64635300D03*
X79003780Y64635300D03*
X86603780Y72635300D03*
X82803780Y72635300D03*
X79003780Y72635300D03*
%TD*%
D36*
%TO.C,J12*%
X97826000Y96552500D03*
D25*
X102826000Y96552500D03*
%TD*%
D22*
%TO.C,C17*%
X62786560Y65549610D03*
D23*
X55286560Y65549610D03*
%TD*%
D37*
%TO.C,D4*%
X84104980Y69545200D03*
X81304980Y69545200D03*
%TD*%
D38*
%TO.C,R14*%
X75056780Y96557300D03*
X75056780Y94732300D03*
%TD*%
D39*
%TO.C,C5*%
X135890000Y28067000D03*
X137615000Y28067000D03*
%TD*%
D40*
%TO.C,R40*%
X143088380Y21821194D03*
X141263380Y21821194D03*
%TD*%
D38*
%TO.C,R19*%
X113284000Y41813500D03*
X113284000Y39988500D03*
%TD*%
D41*
%TO.C,U7*%
X97659280Y32105200D03*
X95119280Y32105200D03*
X95119280Y38405200D03*
X97659280Y38405200D03*
%TD*%
D38*
%TO.C,R15*%
X86487000Y41373750D03*
X86487000Y39548750D03*
%TD*%
%TO.C,R10*%
X100383380Y43330500D03*
X100383380Y41505500D03*
%TD*%
D42*
%TO.C,C4*%
X135851500Y30499250D03*
X138976500Y30499250D03*
%TD*%
D37*
%TO.C,D6*%
X94417380Y41198800D03*
X91617380Y41198800D03*
%TD*%
D40*
%TO.C,R2*%
X146670400Y16246500D03*
X144845400Y16246500D03*
%TD*%
D43*
%TO.C,R6*%
X119648500Y30138400D03*
X121473500Y30138400D03*
%TD*%
D38*
%TO.C,R18*%
X123952000Y95518000D03*
X123952000Y93693000D03*
%TD*%
D43*
%TO.C,R7*%
X95152880Y30099000D03*
X96977880Y30099000D03*
%TD*%
D40*
%TO.C,R38*%
X143074400Y23866500D03*
X141249400Y23866500D03*
%TD*%
D44*
%TO.C,R17*%
X109021380Y51409598D03*
X102921380Y51409598D03*
%TD*%
D45*
%TO.C,D5*%
X132679000Y34439251D03*
X132679000Y31639251D03*
%TD*%
D43*
%TO.C,R1*%
X144845400Y13198500D03*
X146670400Y13198500D03*
%TD*%
D46*
%TO.C,C2*%
X104783900Y4704500D03*
X101658900Y4704500D03*
%TD*%
D47*
%TO.C,C22*%
X101600000Y22807000D03*
X101600000Y21082000D03*
%TD*%
D37*
%TO.C,D10*%
X107320580Y41249600D03*
X104520580Y41249600D03*
%TD*%
D48*
%TO.C,U8*%
X96472180Y45840700D03*
X96472180Y43300700D03*
X90172180Y43300700D03*
X90172180Y45840700D03*
%TD*%
D41*
%TO.C,U1*%
X108753790Y32460799D03*
X106213790Y32460799D03*
X106213790Y38760799D03*
X108753790Y38760799D03*
%TD*%
D49*
%TO.C,C11*%
X119772500Y34837400D03*
X118047500Y34837400D03*
%TD*%
D43*
%TO.C,R21*%
X93092900Y3190900D03*
X94917900Y3190900D03*
%TD*%
D50*
%TO.C,R20*%
X113262000Y38221500D03*
X113262000Y36221500D03*
%TD*%
D51*
%TO.C,Q1*%
X104365680Y45704800D03*
X104365680Y43804800D03*
X102090680Y44754800D03*
%TD*%
D40*
%TO.C,R5*%
X81356880Y29661153D03*
X79531880Y29661153D03*
%TD*%
D44*
%TO.C,R13*%
X96316961Y51308000D03*
X90216961Y51308000D03*
%TD*%
D52*
%TO.C,C3*%
X135868500Y35579250D03*
X137943500Y35579250D03*
%TD*%
D50*
%TO.C,R16*%
X86487000Y37921250D03*
X86487000Y35921250D03*
%TD*%
D53*
%TO.C,D2*%
X136861900Y16881500D03*
X139661900Y16881500D03*
%TD*%
D54*
%TO.C,U26*%
X90805000Y18923000D03*
X92075000Y18923000D03*
X93345000Y18923000D03*
X94615000Y18923000D03*
X95885000Y18923000D03*
X97155000Y18923000D03*
X98425000Y18923000D03*
X99695000Y18923000D03*
X100965000Y18923000D03*
X102235000Y18923000D03*
X103505000Y18923000D03*
X104775000Y18923000D03*
X106045000Y18923000D03*
X107315000Y18923000D03*
X107315000Y7798000D03*
X106045000Y7798000D03*
X104775000Y7798000D03*
X103505000Y7798000D03*
X102235000Y7798000D03*
X100965000Y7798000D03*
X99695000Y7798000D03*
X98425000Y7798000D03*
X97155000Y7798000D03*
X95885000Y7798000D03*
X94615000Y7798000D03*
X93345000Y7798000D03*
X92075000Y7798000D03*
X90805000Y7798000D03*
%TD*%
D49*
%TO.C,C10*%
X75718880Y33344153D03*
X73993880Y33344153D03*
%TD*%
D47*
%TO.C,C13*%
X111506000Y38184000D03*
X111506000Y36459000D03*
%TD*%
D40*
%TO.C,R11*%
X106319790Y30479999D03*
X104494790Y30479999D03*
%TD*%
D55*
%TO.C,C6*%
X93903800Y25340800D03*
X93903800Y27065800D03*
%TD*%
D37*
%TO.C,D9*%
X118366580Y69748400D03*
X115566580Y69748400D03*
%TD*%
D55*
%TO.C,C9*%
X95758000Y25400000D03*
X95758000Y27125000D03*
%TD*%
G36*
X85033039Y89134315D02*
G01*
X85078794Y89081511D01*
X85090000Y89030000D01*
X85090000Y85468000D01*
X85070315Y85400961D01*
X85017511Y85355206D01*
X84966000Y85344000D01*
X84579000Y85344000D01*
X84511961Y85363685D01*
X84466206Y85416489D01*
X84455000Y85468000D01*
X84455000Y89030000D01*
X84474685Y89097039D01*
X84527489Y89142794D01*
X84579000Y89154000D01*
X84966000Y89154000D01*
X85033039Y89134315D01*
G37*
G36*
X83763039Y89134315D02*
G01*
X83808794Y89081511D01*
X83820000Y89030000D01*
X83820000Y88008000D01*
X83800315Y87940961D01*
X83747511Y87895206D01*
X83696000Y87884000D01*
X83309000Y87884000D01*
X83241961Y87903685D01*
X83196206Y87956489D01*
X83185000Y88008000D01*
X83185000Y89030000D01*
X83204685Y89097039D01*
X83257489Y89142794D01*
X83309000Y89154000D01*
X83696000Y89154000D01*
X83763039Y89134315D01*
G37*
G36*
X82366039Y89134315D02*
G01*
X82411794Y89081511D01*
X82423000Y89030000D01*
X82423000Y88008000D01*
X82403315Y87940961D01*
X82350511Y87895206D01*
X82299000Y87884000D01*
X81912000Y87884000D01*
X81844961Y87903685D01*
X81799206Y87956489D01*
X81788000Y88008000D01*
X81788000Y89030000D01*
X81807685Y89097039D01*
X81860489Y89142794D01*
X81912000Y89154000D01*
X82299000Y89154000D01*
X82366039Y89134315D01*
G37*
G36*
X111322039Y89134315D02*
G01*
X111367794Y89081511D01*
X111379000Y89030000D01*
X111379000Y85468000D01*
X111359315Y85400961D01*
X111306511Y85355206D01*
X111255000Y85344000D01*
X110868000Y85344000D01*
X110800961Y85363685D01*
X110755206Y85416489D01*
X110744000Y85468000D01*
X110744000Y89030000D01*
X110763685Y89097039D01*
X110816489Y89142794D01*
X110868000Y89154000D01*
X111255000Y89154000D01*
X111322039Y89134315D01*
G37*
G36*
X109163039Y89134315D02*
G01*
X109208794Y89081511D01*
X109220000Y89030000D01*
X109220000Y88008000D01*
X109200315Y87940961D01*
X109147511Y87895206D01*
X109096000Y87884000D01*
X108709000Y87884000D01*
X108641961Y87903685D01*
X108596206Y87956489D01*
X108585000Y88008000D01*
X108585000Y89030000D01*
X108604685Y89097039D01*
X108657489Y89142794D01*
X108709000Y89154000D01*
X109096000Y89154000D01*
X109163039Y89134315D01*
G37*
G36*
X110179039Y89147365D02*
G01*
X110224794Y89094561D01*
X110236000Y89043050D01*
X110236000Y85481050D01*
X110216315Y85414011D01*
X110163511Y85368256D01*
X110112000Y85357050D01*
X109725000Y85357050D01*
X109657961Y85376735D01*
X109612206Y85429539D01*
X109601000Y85481050D01*
X109601000Y89043050D01*
X109620685Y89110089D01*
X109673489Y89155844D01*
X109725000Y89167050D01*
X110112000Y89167050D01*
X110179039Y89147365D01*
G37*
G36*
X126045600Y49453241D02*
G01*
X126091355Y49400437D01*
X126102561Y49348926D01*
X126102561Y48961926D01*
X126082876Y48894887D01*
X126030072Y48849132D01*
X125978561Y48837926D01*
X122416561Y48837926D01*
X122349522Y48857611D01*
X122303767Y48910415D01*
X122292561Y48961926D01*
X122292561Y49348926D01*
X122312246Y49415965D01*
X122365050Y49461720D01*
X122416561Y49472926D01*
X125978561Y49472926D01*
X126045600Y49453241D01*
G37*
G36*
X131642039Y49383315D02*
G01*
X131687794Y49330511D01*
X131699000Y49279000D01*
X131699000Y48892000D01*
X131679315Y48824961D01*
X131626511Y48779206D01*
X131575000Y48768000D01*
X127505000Y48768000D01*
X127437961Y48787685D01*
X127392206Y48840489D01*
X127381000Y48892000D01*
X127381000Y49279000D01*
X127400685Y49346039D01*
X127453489Y49391794D01*
X127505000Y49403000D01*
X131575000Y49403000D01*
X131642039Y49383315D01*
G37*
G36*
X126054039Y45573315D02*
G01*
X126099794Y45520511D01*
X126111000Y45469000D01*
X126111000Y45082000D01*
X126091315Y45014961D01*
X126038511Y44969206D01*
X125987000Y44958000D01*
X122425000Y44958000D01*
X122357961Y44977685D01*
X122312206Y45030489D01*
X122301000Y45082000D01*
X122301000Y45469000D01*
X122320685Y45536039D01*
X122373489Y45581794D01*
X122425000Y45593000D01*
X125987000Y45593000D01*
X126054039Y45573315D01*
G37*
G36*
X126054039Y48113315D02*
G01*
X126099794Y48060511D01*
X126111000Y48009000D01*
X126111000Y47622000D01*
X126091315Y47554961D01*
X126038511Y47509206D01*
X125987000Y47498000D01*
X122425000Y47498000D01*
X122357961Y47517685D01*
X122312206Y47570489D01*
X122301000Y47622000D01*
X122301000Y48009000D01*
X122320685Y48076039D01*
X122373489Y48121794D01*
X122425000Y48133000D01*
X125987000Y48133000D01*
X126054039Y48113315D01*
G37*
G36*
X131662699Y48113315D02*
G01*
X131708454Y48060511D01*
X131719660Y48009000D01*
X131719660Y47622000D01*
X131699975Y47554961D01*
X131647171Y47509206D01*
X131595660Y47498000D01*
X127525660Y47498000D01*
X127458621Y47517685D01*
X127412866Y47570489D01*
X127401660Y47622000D01*
X127401660Y48009000D01*
X127421345Y48076039D01*
X127474149Y48121794D01*
X127525660Y48133000D01*
X131595660Y48133000D01*
X131662699Y48113315D01*
G37*
G36*
X126054039Y46843315D02*
G01*
X126099794Y46790511D01*
X126111000Y46739000D01*
X126111000Y46352000D01*
X126091315Y46284961D01*
X126038511Y46239206D01*
X125987000Y46228000D01*
X122425000Y46228000D01*
X122357961Y46247685D01*
X122312206Y46300489D01*
X122301000Y46352000D01*
X122301000Y46739000D01*
X122320685Y46806039D01*
X122373489Y46851794D01*
X122425000Y46863000D01*
X125987000Y46863000D01*
X126054039Y46843315D01*
G37*
G36*
X131604060Y45591992D02*
G01*
X131649815Y45539188D01*
X131661021Y45487677D01*
X131661021Y45100677D01*
X131641336Y45033638D01*
X131588532Y44987883D01*
X131537021Y44976677D01*
X127467021Y44976677D01*
X127399982Y44996362D01*
X127354227Y45049166D01*
X127343021Y45100677D01*
X127343021Y45487677D01*
X127362706Y45554716D01*
X127415510Y45600471D01*
X127467021Y45611677D01*
X131537021Y45611677D01*
X131604060Y45591992D01*
G37*
G36*
X131652517Y46843315D02*
G01*
X131698272Y46790511D01*
X131709478Y46739000D01*
X131709478Y46352000D01*
X131689793Y46284961D01*
X131636989Y46239206D01*
X131585478Y46228000D01*
X127515478Y46228000D01*
X127448439Y46247685D01*
X127402684Y46300489D01*
X127391478Y46352000D01*
X127391478Y46739000D01*
X127411163Y46806039D01*
X127463967Y46851794D01*
X127515478Y46863000D01*
X131585478Y46863000D01*
X131652517Y46843315D01*
G37*
G36*
X67888039Y50145315D02*
G01*
X67933794Y50092511D01*
X67945000Y50041000D01*
X67945000Y49654000D01*
X67925315Y49586961D01*
X67872511Y49541206D01*
X67821000Y49530000D01*
X66799000Y49530000D01*
X66731961Y49549685D01*
X66686206Y49602489D01*
X66675000Y49654000D01*
X66675000Y50041000D01*
X66694685Y50108039D01*
X66747489Y50153794D01*
X66799000Y50165000D01*
X67821000Y50165000D01*
X67888039Y50145315D01*
G37*
G36*
X67380039Y54463315D02*
G01*
X67425794Y54410511D01*
X67437000Y54359000D01*
X67437000Y53972000D01*
X67417315Y53904961D01*
X67364511Y53859206D01*
X67313000Y53848000D01*
X63751000Y53848000D01*
X63683961Y53867685D01*
X63638206Y53920489D01*
X63627000Y53972000D01*
X63627000Y54359000D01*
X63646685Y54426039D01*
X63699489Y54471794D01*
X63751000Y54483000D01*
X67313000Y54483000D01*
X67380039Y54463315D01*
G37*
G36*
X67888039Y50907315D02*
G01*
X67933794Y50854511D01*
X67945000Y50803000D01*
X67945000Y50416000D01*
X67925315Y50348961D01*
X67872511Y50303206D01*
X67821000Y50292000D01*
X66799000Y50292000D01*
X66731961Y50311685D01*
X66686206Y50364489D01*
X66675000Y50416000D01*
X66675000Y50803000D01*
X66694685Y50870039D01*
X66747489Y50915794D01*
X66799000Y50927000D01*
X67821000Y50927000D01*
X67888039Y50907315D01*
G37*
G36*
X112592039Y89134315D02*
G01*
X112637794Y89081511D01*
X112649000Y89030000D01*
X112649000Y88008000D01*
X112629315Y87940961D01*
X112576511Y87895206D01*
X112525000Y87884000D01*
X112138000Y87884000D01*
X112070961Y87903685D01*
X112025206Y87956489D01*
X112014000Y88008000D01*
X112014000Y89030000D01*
X112033685Y89097039D01*
X112086489Y89142794D01*
X112138000Y89154000D01*
X112525000Y89154000D01*
X112592039Y89134315D01*
G37*
G36*
X115132039Y87356315D02*
G01*
X115177794Y87303511D01*
X115189000Y87252000D01*
X115189000Y83690000D01*
X115169315Y83622961D01*
X115116511Y83577206D01*
X115065000Y83566000D01*
X114678000Y83566000D01*
X114610961Y83585685D01*
X114565206Y83638489D01*
X114554000Y83690000D01*
X114554000Y87252000D01*
X114573685Y87319039D01*
X114626489Y87364794D01*
X114678000Y87376000D01*
X115065000Y87376000D01*
X115132039Y87356315D01*
G37*
G36*
X112592039Y87356315D02*
G01*
X112637794Y87303511D01*
X112649000Y87252000D01*
X112649000Y83690000D01*
X112629315Y83622961D01*
X112576511Y83577206D01*
X112525000Y83566000D01*
X112138000Y83566000D01*
X112070961Y83585685D01*
X112025206Y83638489D01*
X112014000Y83690000D01*
X112014000Y87252000D01*
X112033685Y87319039D01*
X112086489Y87364794D01*
X112138000Y87376000D01*
X112525000Y87376000D01*
X112592039Y87356315D01*
G37*
G36*
X113862039Y84816315D02*
G01*
X113907794Y84763511D01*
X113919000Y84712000D01*
X113919000Y83690000D01*
X113899315Y83622961D01*
X113846511Y83577206D01*
X113795000Y83566000D01*
X113408000Y83566000D01*
X113340961Y83585685D01*
X113295206Y83638489D01*
X113284000Y83690000D01*
X113284000Y84712000D01*
X113303685Y84779039D01*
X113356489Y84824794D01*
X113408000Y84836000D01*
X113795000Y84836000D01*
X113862039Y84816315D01*
G37*
G36*
X111322039Y84816315D02*
G01*
X111367794Y84763511D01*
X111379000Y84712000D01*
X111379000Y83690000D01*
X111359315Y83622961D01*
X111306511Y83577206D01*
X111255000Y83566000D01*
X110868000Y83566000D01*
X110800961Y83585685D01*
X110755206Y83638489D01*
X110744000Y83690000D01*
X110744000Y84712000D01*
X110763685Y84779039D01*
X110816489Y84824794D01*
X110868000Y84836000D01*
X111255000Y84836000D01*
X111322039Y84816315D01*
G37*
G36*
X115132039Y83038315D02*
G01*
X115177794Y82985511D01*
X115189000Y82934000D01*
X115189000Y81912000D01*
X115169315Y81844961D01*
X115116511Y81799206D01*
X115065000Y81788000D01*
X114678000Y81788000D01*
X114610961Y81807685D01*
X114565206Y81860489D01*
X114554000Y81912000D01*
X114554000Y82934000D01*
X114573685Y83001039D01*
X114626489Y83046794D01*
X114678000Y83058000D01*
X115065000Y83058000D01*
X115132039Y83038315D01*
G37*
G36*
X112592039Y83038315D02*
G01*
X112637794Y82985511D01*
X112649000Y82934000D01*
X112649000Y81912000D01*
X112629315Y81844961D01*
X112576511Y81799206D01*
X112525000Y81788000D01*
X112138000Y81788000D01*
X112070961Y81807685D01*
X112025206Y81860489D01*
X112014000Y81912000D01*
X112014000Y82934000D01*
X112033685Y83001039D01*
X112086489Y83046794D01*
X112138000Y83058000D01*
X112525000Y83058000D01*
X112592039Y83038315D01*
G37*
G36*
X113862039Y83038315D02*
G01*
X113907794Y82985511D01*
X113919000Y82934000D01*
X113919000Y79372000D01*
X113899315Y79304961D01*
X113846511Y79259206D01*
X113795000Y79248000D01*
X113408000Y79248000D01*
X113340961Y79267685D01*
X113295206Y79320489D01*
X113284000Y79372000D01*
X113284000Y82934000D01*
X113303685Y83001039D01*
X113356489Y83046794D01*
X113408000Y83058000D01*
X113795000Y83058000D01*
X113862039Y83038315D01*
G37*
G36*
X111322039Y83038315D02*
G01*
X111367794Y82985511D01*
X111379000Y82934000D01*
X111379000Y79372000D01*
X111359315Y79304961D01*
X111306511Y79259206D01*
X111255000Y79248000D01*
X110868000Y79248000D01*
X110800961Y79267685D01*
X110755206Y79320489D01*
X110744000Y79372000D01*
X110744000Y82934000D01*
X110763685Y83001039D01*
X110816489Y83046794D01*
X110868000Y83058000D01*
X111255000Y83058000D01*
X111322039Y83038315D01*
G37*
G36*
X115132039Y81260315D02*
G01*
X115177794Y81207511D01*
X115189000Y81156000D01*
X115189000Y77594000D01*
X115169315Y77526961D01*
X115116511Y77481206D01*
X115065000Y77470000D01*
X114678000Y77470000D01*
X114610961Y77489685D01*
X114565206Y77542489D01*
X114554000Y77594000D01*
X114554000Y81156000D01*
X114573685Y81223039D01*
X114626489Y81268794D01*
X114678000Y81280000D01*
X115065000Y81280000D01*
X115132039Y81260315D01*
G37*
G36*
X112592039Y81260315D02*
G01*
X112637794Y81207511D01*
X112649000Y81156000D01*
X112649000Y77594000D01*
X112629315Y77526961D01*
X112576511Y77481206D01*
X112525000Y77470000D01*
X112138000Y77470000D01*
X112070961Y77489685D01*
X112025206Y77542489D01*
X112014000Y77594000D01*
X112014000Y81156000D01*
X112033685Y81223039D01*
X112086489Y81268794D01*
X112138000Y81280000D01*
X112525000Y81280000D01*
X112592039Y81260315D01*
G37*
G36*
X113862039Y78720315D02*
G01*
X113907794Y78667511D01*
X113919000Y78616000D01*
X113919000Y77594000D01*
X113899315Y77526961D01*
X113846511Y77481206D01*
X113795000Y77470000D01*
X113408000Y77470000D01*
X113340961Y77489685D01*
X113295206Y77542489D01*
X113284000Y77594000D01*
X113284000Y78616000D01*
X113303685Y78683039D01*
X113356489Y78728794D01*
X113408000Y78740000D01*
X113795000Y78740000D01*
X113862039Y78720315D01*
G37*
G36*
X111322039Y78720315D02*
G01*
X111367794Y78667511D01*
X111379000Y78616000D01*
X111379000Y77594000D01*
X111359315Y77526961D01*
X111306511Y77481206D01*
X111255000Y77470000D01*
X110868000Y77470000D01*
X110800961Y77489685D01*
X110755206Y77542489D01*
X110744000Y77594000D01*
X110744000Y78616000D01*
X110763685Y78683039D01*
X110816489Y78728794D01*
X110868000Y78740000D01*
X111255000Y78740000D01*
X111322039Y78720315D01*
G37*
G36*
X110179039Y78720315D02*
G01*
X110224794Y78667511D01*
X110236000Y78616000D01*
X110236000Y77594000D01*
X110216315Y77526961D01*
X110163511Y77481206D01*
X110112000Y77470000D01*
X109725000Y77470000D01*
X109657961Y77489685D01*
X109612206Y77542489D01*
X109601000Y77594000D01*
X109601000Y78616000D01*
X109620685Y78683039D01*
X109673489Y78728794D01*
X109725000Y78740000D01*
X110112000Y78740000D01*
X110179039Y78720315D01*
G37*
G36*
X110179039Y84816315D02*
G01*
X110224794Y84763511D01*
X110236000Y84712000D01*
X110236000Y83690000D01*
X110216315Y83622961D01*
X110163511Y83577206D01*
X110112000Y83566000D01*
X109725000Y83566000D01*
X109657961Y83585685D01*
X109612206Y83638489D01*
X109601000Y83690000D01*
X109601000Y84712000D01*
X109620685Y84779039D01*
X109673489Y84824794D01*
X109725000Y84836000D01*
X110112000Y84836000D01*
X110179039Y84816315D01*
G37*
G36*
X110179039Y83038315D02*
G01*
X110224794Y82985511D01*
X110236000Y82934000D01*
X110236000Y79372000D01*
X110216315Y79304961D01*
X110163511Y79259206D01*
X110112000Y79248000D01*
X109725000Y79248000D01*
X109657961Y79267685D01*
X109612206Y79320489D01*
X109601000Y79372000D01*
X109601000Y82934000D01*
X109620685Y83001039D01*
X109673489Y83046794D01*
X109725000Y83058000D01*
X110112000Y83058000D01*
X110179039Y83038315D01*
G37*
G36*
X109163039Y78720315D02*
G01*
X109208794Y78667511D01*
X109220000Y78616000D01*
X109220000Y77594000D01*
X109200315Y77526961D01*
X109147511Y77481206D01*
X109096000Y77470000D01*
X108709000Y77470000D01*
X108641961Y77489685D01*
X108596206Y77542489D01*
X108585000Y77594000D01*
X108585000Y78616000D01*
X108604685Y78683039D01*
X108657489Y78728794D01*
X108709000Y78740000D01*
X109096000Y78740000D01*
X109163039Y78720315D01*
G37*
G36*
X109163039Y87483315D02*
G01*
X109208794Y87430511D01*
X109220000Y87379000D01*
X109220000Y85468000D01*
X109200315Y85400961D01*
X109147511Y85355206D01*
X109096000Y85344000D01*
X108709000Y85344000D01*
X108641961Y85363685D01*
X108596206Y85416489D01*
X108585000Y85468000D01*
X108585000Y87379000D01*
X108604685Y87446039D01*
X108657489Y87491794D01*
X108709000Y87503000D01*
X109096000Y87503000D01*
X109163039Y87483315D01*
G37*
G36*
X109163039Y83038315D02*
G01*
X109208794Y82985511D01*
X109220000Y82934000D01*
X109220000Y79372000D01*
X109200315Y79304961D01*
X109147511Y79259206D01*
X109096000Y79248000D01*
X108709000Y79248000D01*
X108641961Y79267685D01*
X108596206Y79320489D01*
X108585000Y79372000D01*
X108585000Y82934000D01*
X108604685Y83001039D01*
X108657489Y83046794D01*
X108709000Y83058000D01*
X109096000Y83058000D01*
X109163039Y83038315D01*
G37*
G36*
X109163039Y84816315D02*
G01*
X109208794Y84763511D01*
X109220000Y84712000D01*
X109220000Y83690000D01*
X109200315Y83622961D01*
X109147511Y83577206D01*
X109096000Y83566000D01*
X108709000Y83566000D01*
X108641961Y83585685D01*
X108596206Y83638489D01*
X108585000Y83690000D01*
X108585000Y84712000D01*
X108604685Y84779039D01*
X108657489Y84824794D01*
X108709000Y84836000D01*
X109096000Y84836000D01*
X109163039Y84816315D01*
G37*
G36*
X67367380Y55249431D02*
G01*
X67413135Y55196627D01*
X67424341Y55145116D01*
X67424341Y54758116D01*
X67404656Y54691077D01*
X67351852Y54645322D01*
X67300341Y54634116D01*
X63738341Y54634116D01*
X63671302Y54653801D01*
X63625547Y54706605D01*
X63614341Y54758116D01*
X63614341Y55145116D01*
X63634026Y55212155D01*
X63686830Y55257910D01*
X63738341Y55269116D01*
X67300341Y55269116D01*
X67367380Y55249431D01*
G37*
G36*
X67354720Y56136023D02*
G01*
X67400475Y56083219D01*
X67411681Y56031708D01*
X67411681Y55644708D01*
X67391996Y55577669D01*
X67339192Y55531914D01*
X67287681Y55520708D01*
X64233681Y55520708D01*
X64166642Y55540393D01*
X64120887Y55593197D01*
X64109681Y55644708D01*
X64109681Y56031708D01*
X64129366Y56098747D01*
X64182170Y56144502D01*
X64233681Y56155708D01*
X67287681Y56155708D01*
X67354720Y56136023D01*
G37*
G36*
X85033039Y84562315D02*
G01*
X85078794Y84509511D01*
X85090000Y84458000D01*
X85090000Y80896000D01*
X85070315Y80828961D01*
X85017511Y80783206D01*
X84966000Y80772000D01*
X84579000Y80772000D01*
X84511961Y80791685D01*
X84466206Y80844489D01*
X84455000Y80896000D01*
X84455000Y84458000D01*
X84474685Y84525039D01*
X84527489Y84570794D01*
X84579000Y84582000D01*
X84966000Y84582000D01*
X85033039Y84562315D01*
G37*
G36*
X85033039Y80371315D02*
G01*
X85078794Y80318511D01*
X85090000Y80267000D01*
X85090000Y76705000D01*
X85070315Y76637961D01*
X85017511Y76592206D01*
X84966000Y76581000D01*
X84579000Y76581000D01*
X84511961Y76600685D01*
X84466206Y76653489D01*
X84455000Y76705000D01*
X84455000Y80267000D01*
X84474685Y80334039D01*
X84527489Y80379794D01*
X84579000Y80391000D01*
X84966000Y80391000D01*
X85033039Y80371315D01*
G37*
G36*
X81096039Y84562315D02*
G01*
X81141794Y84509511D01*
X81153000Y84458000D01*
X81153000Y80896000D01*
X81133315Y80828961D01*
X81080511Y80783206D01*
X81029000Y80772000D01*
X80642000Y80772000D01*
X80574961Y80791685D01*
X80529206Y80844489D01*
X80518000Y80896000D01*
X80518000Y84458000D01*
X80537685Y84525039D01*
X80590489Y84570794D01*
X80642000Y84582000D01*
X81029000Y84582000D01*
X81096039Y84562315D01*
G37*
G36*
X81096039Y80439285D02*
G01*
X81141794Y80386481D01*
X81153000Y80334970D01*
X81153000Y76772970D01*
X81133315Y76705931D01*
X81080511Y76660176D01*
X81029000Y76648970D01*
X80642000Y76648970D01*
X80574961Y76668655D01*
X80529206Y76721459D01*
X80518000Y76772970D01*
X80518000Y80334970D01*
X80537685Y80402009D01*
X80590489Y80447764D01*
X80642000Y80458970D01*
X81029000Y80458970D01*
X81096039Y80439285D01*
G37*
G36*
X81096039Y89134315D02*
G01*
X81141794Y89081511D01*
X81153000Y89030000D01*
X81153000Y85468000D01*
X81133315Y85400961D01*
X81080511Y85355206D01*
X81029000Y85344000D01*
X80642000Y85344000D01*
X80574961Y85363685D01*
X80529206Y85416489D01*
X80518000Y85468000D01*
X80518000Y89030000D01*
X80537685Y89097039D01*
X80590489Y89142794D01*
X80642000Y89154000D01*
X81029000Y89154000D01*
X81096039Y89134315D01*
G37*
G36*
X113862039Y87356315D02*
G01*
X113907794Y87303511D01*
X113919000Y87252000D01*
X113919000Y85341000D01*
X113899315Y85273961D01*
X113846511Y85228206D01*
X113795000Y85217000D01*
X113408000Y85217000D01*
X113340961Y85236685D01*
X113295206Y85289489D01*
X113284000Y85341000D01*
X113284000Y87252000D01*
X113303685Y87319039D01*
X113356489Y87364794D01*
X113408000Y87376000D01*
X113795000Y87376000D01*
X113862039Y87356315D01*
G37*
M02*
