%TF.GenerationSoftware,KiCad,Pcbnew,10.0.1*%
%TF.CreationDate,2026-05-11T22:06:59+09:00*%
%TF.ProjectId,DRC_POWER2026,4452435f-504f-4574-9552-323032362e6b,rev?*%
%TF.SameCoordinates,Original*%
%TF.FileFunction,Paste,Bot*%
%TF.FilePolarity,Positive*%
%FSLAX46Y46*%
G04 Gerber Fmt 4.6, Leading zero omitted, Abs format (unit mm)*
G04 Created by KiCad (PCBNEW 10.0.1) date 2026-05-11 22:06:59*
%MOMM*%
%LPD*%
G01*
G04 APERTURE LIST*
G04 Aperture macros list*
%AMRoundRect*
0 Rectangle with rounded corners*
0 $1 Rounding radius*
0 $2 $3 $4 $5 $6 $7 $8 $9 X,Y pos of 4 corners*
0 Add a 4 corners polygon primitive as box body*
4,1,4,$2,$3,$4,$5,$6,$7,$8,$9,$2,$3,0*
0 Add four circle primitives for the rounded corners*
1,1,$1+$1,$2,$3*
1,1,$1+$1,$4,$5*
1,1,$1+$1,$6,$7*
1,1,$1+$1,$8,$9*
0 Add four rect primitives between the rounded corners*
20,1,$1+$1,$2,$3,$4,$5,0*
20,1,$1+$1,$4,$5,$6,$7,0*
20,1,$1+$1,$6,$7,$8,$9,0*
20,1,$1+$1,$8,$9,$2,$3,0*%
G04 Aperture macros list end*
%ADD10RoundRect,0.250000X0.300000X0.300000X-0.300000X0.300000X-0.300000X-0.300000X0.300000X-0.300000X0*%
%ADD11RoundRect,0.237500X-0.237500X0.250000X-0.237500X-0.250000X0.237500X-0.250000X0.237500X0.250000X0*%
%ADD12RoundRect,0.237500X-0.300000X-0.237500X0.300000X-0.237500X0.300000X0.237500X-0.300000X0.237500X0*%
%ADD13RoundRect,0.237500X0.250000X0.237500X-0.250000X0.237500X-0.250000X-0.237500X0.250000X-0.237500X0*%
%ADD14R,0.640000X2.000000*%
%ADD15RoundRect,0.250000X-0.412500X-1.100000X0.412500X-1.100000X0.412500X1.100000X-0.412500X1.100000X0*%
%ADD16RoundRect,0.237500X-0.250000X-0.237500X0.250000X-0.237500X0.250000X0.237500X-0.250000X0.237500X0*%
%ADD17RoundRect,0.249999X0.450001X1.425001X-0.450001X1.425001X-0.450001X-1.425001X0.450001X-1.425001X0*%
%ADD18RoundRect,0.250000X-0.300000X0.300000X-0.300000X-0.300000X0.300000X-0.300000X0.300000X0.300000X0*%
%ADD19RoundRect,0.250000X0.412500X1.100000X-0.412500X1.100000X-0.412500X-1.100000X0.412500X-1.100000X0*%
%ADD20RoundRect,0.237500X-0.237500X0.300000X-0.237500X-0.300000X0.237500X-0.300000X0.237500X0.300000X0*%
%ADD21R,2.000000X0.640000*%
%ADD22RoundRect,0.237500X0.300000X0.237500X-0.300000X0.237500X-0.300000X-0.237500X0.300000X-0.237500X0*%
%ADD23RoundRect,0.250000X-0.450000X0.350000X-0.450000X-0.350000X0.450000X-0.350000X0.450000X0.350000X0*%
%ADD24RoundRect,0.150000X0.512500X0.150000X-0.512500X0.150000X-0.512500X-0.150000X0.512500X-0.150000X0*%
%ADD25RoundRect,0.250000X-0.337500X-0.475000X0.337500X-0.475000X0.337500X0.475000X-0.337500X0.475000X0*%
%ADD26RoundRect,0.250000X-0.300000X-0.300000X0.300000X-0.300000X0.300000X0.300000X-0.300000X0.300000X0*%
%ADD27RoundRect,0.150000X-0.150000X0.987500X-0.150000X-0.987500X0.150000X-0.987500X0.150000X0.987500X0*%
%ADD28RoundRect,0.237500X0.237500X-0.300000X0.237500X0.300000X-0.237500X0.300000X-0.237500X-0.300000X0*%
G04 APERTURE END LIST*
D10*
%TO.C,D4*%
X84104980Y69545200D03*
X81304980Y69545200D03*
%TD*%
D11*
%TO.C,R14*%
X75056780Y96557300D03*
X75056780Y94732300D03*
%TD*%
D12*
%TO.C,C5*%
X135890000Y28067000D03*
X137615000Y28067000D03*
%TD*%
D13*
%TO.C,R40*%
X143088380Y21821194D03*
X141263380Y21821194D03*
%TD*%
D11*
%TO.C,R19*%
X113284000Y41813500D03*
X113284000Y39988500D03*
%TD*%
D14*
%TO.C,U7*%
X97659280Y32105200D03*
X95119280Y32105200D03*
X95119280Y38405200D03*
X97659280Y38405200D03*
%TD*%
D11*
%TO.C,R15*%
X86487000Y41373750D03*
X86487000Y39548750D03*
%TD*%
%TO.C,R10*%
X100383380Y43330500D03*
X100383380Y41505500D03*
%TD*%
D15*
%TO.C,C4*%
X135851500Y30499250D03*
X138976500Y30499250D03*
%TD*%
D10*
%TO.C,D6*%
X94417380Y41198800D03*
X91617380Y41198800D03*
%TD*%
D13*
%TO.C,R2*%
X146670400Y16246500D03*
X144845400Y16246500D03*
%TD*%
D16*
%TO.C,R6*%
X119648500Y30138400D03*
X121473500Y30138400D03*
%TD*%
D11*
%TO.C,R18*%
X123952000Y95518000D03*
X123952000Y93693000D03*
%TD*%
D16*
%TO.C,R7*%
X95152880Y30099000D03*
X96977880Y30099000D03*
%TD*%
D13*
%TO.C,R38*%
X143074400Y23866500D03*
X141249400Y23866500D03*
%TD*%
D17*
%TO.C,R17*%
X109021380Y51409598D03*
X102921380Y51409598D03*
%TD*%
D18*
%TO.C,D5*%
X132679000Y34439251D03*
X132679000Y31639251D03*
%TD*%
D16*
%TO.C,R1*%
X144845400Y13198500D03*
X146670400Y13198500D03*
%TD*%
D19*
%TO.C,C2*%
X104783900Y4704500D03*
X101658900Y4704500D03*
%TD*%
D20*
%TO.C,C22*%
X101600000Y22807000D03*
X101600000Y21082000D03*
%TD*%
D10*
%TO.C,D10*%
X107320580Y41249600D03*
X104520580Y41249600D03*
%TD*%
D21*
%TO.C,U8*%
X96472180Y45840700D03*
X96472180Y43300700D03*
X90172180Y43300700D03*
X90172180Y45840700D03*
%TD*%
D14*
%TO.C,U1*%
X108753790Y32460799D03*
X106213790Y32460799D03*
X106213790Y38760799D03*
X108753790Y38760799D03*
%TD*%
D22*
%TO.C,C11*%
X119772500Y34837400D03*
X118047500Y34837400D03*
%TD*%
D16*
%TO.C,R21*%
X93092900Y3190900D03*
X94917900Y3190900D03*
%TD*%
D23*
%TO.C,R20*%
X113262000Y38221500D03*
X113262000Y36221500D03*
%TD*%
D24*
%TO.C,Q1*%
X104365680Y45704800D03*
X104365680Y43804800D03*
X102090680Y44754800D03*
%TD*%
D13*
%TO.C,R5*%
X81356880Y29661153D03*
X79531880Y29661153D03*
%TD*%
D17*
%TO.C,R13*%
X96316961Y51308000D03*
X90216961Y51308000D03*
%TD*%
D25*
%TO.C,C3*%
X135868500Y35579250D03*
X137943500Y35579250D03*
%TD*%
D23*
%TO.C,R16*%
X86487000Y37921250D03*
X86487000Y35921250D03*
%TD*%
D26*
%TO.C,D2*%
X136861900Y16881500D03*
X139661900Y16881500D03*
%TD*%
D27*
%TO.C,U26*%
X90805000Y18923000D03*
X92075000Y18923000D03*
X93345000Y18923000D03*
X94615000Y18923000D03*
X95885000Y18923000D03*
X97155000Y18923000D03*
X98425000Y18923000D03*
X99695000Y18923000D03*
X100965000Y18923000D03*
X102235000Y18923000D03*
X103505000Y18923000D03*
X104775000Y18923000D03*
X106045000Y18923000D03*
X107315000Y18923000D03*
X107315000Y7798000D03*
X106045000Y7798000D03*
X104775000Y7798000D03*
X103505000Y7798000D03*
X102235000Y7798000D03*
X100965000Y7798000D03*
X99695000Y7798000D03*
X98425000Y7798000D03*
X97155000Y7798000D03*
X95885000Y7798000D03*
X94615000Y7798000D03*
X93345000Y7798000D03*
X92075000Y7798000D03*
X90805000Y7798000D03*
%TD*%
D22*
%TO.C,C10*%
X75718880Y33344153D03*
X73993880Y33344153D03*
%TD*%
D20*
%TO.C,C13*%
X111506000Y38184000D03*
X111506000Y36459000D03*
%TD*%
D13*
%TO.C,R11*%
X106319790Y30479999D03*
X104494790Y30479999D03*
%TD*%
D28*
%TO.C,C6*%
X93903800Y25340800D03*
X93903800Y27065800D03*
%TD*%
D10*
%TO.C,D9*%
X118366580Y69748400D03*
X115566580Y69748400D03*
%TD*%
D28*
%TO.C,C9*%
X95758000Y25400000D03*
X95758000Y27125000D03*
%TD*%
M02*
