M48
; DRILL file KiCad 10.0.1 date 2026-05-11T22:49:04
; FORMAT={-:-/ absolute / metric / decimal}
; #@! TF.CreationDate,2026-05-11T22:49:04+09:00
; #@! TF.GenerationSoftware,Kicad,Pcbnew,10.0.1
; #@! TF.FileFunction,MixedPlating,1,4
FMAT,2
METRIC
; #@! TA.AperFunction,Plated,PTH,ViaDrill
T1C0.300
; #@! TA.AperFunction,Plated,PTH,ComponentDrill
T2C0.300
; #@! TA.AperFunction,Plated,PTH,ViaDrill
T3C0.400
; #@! TA.AperFunction,Plated,PTH,ComponentDrill
T4C0.500
; #@! TA.AperFunction,Plated,PTH,ComponentDrill
T5C0.600
; #@! TA.AperFunction,Plated,PTH,ViaDrill
T6C0.700
; #@! TA.AperFunction,Plated,PTH,ComponentDrill
T7C0.700
; #@! TA.AperFunction,Plated,PTH,ComponentDrill
T8C0.800
; #@! TA.AperFunction,Plated,PTH,ViaDrill
T9C1.000
; #@! TA.AperFunction,Plated,PTH,ComponentDrill
T10C1.000
; #@! TA.AperFunction,Plated,PTH,ComponentDrill
T11C1.200
; #@! TA.AperFunction,Plated,PTH,ComponentDrill
T12C1.300
; #@! TA.AperFunction,Plated,PTH,ComponentDrill
T13C2.000
; #@! TA.AperFunction,Plated,PTH,ComponentDrill
T14C2.200
; #@! TA.AperFunction,Plated,PTH,ComponentDrill
T15C2.700
; #@! TA.AperFunction,NonPlated,NPTH,ComponentDrill
T16C0.650
; #@! TA.AperFunction,NonPlated,NPTH,ComponentDrill
T17C3.200
%
G90
G05
T1
X75.057Y96.543
X86.487Y37.962
X100.383Y41.505
X102.842Y24.12
X104.366Y43.805
X107.975Y24.12
X123.952Y95.504
X145.034Y25.908
T2
X98.368Y91.948
X99.568Y91.948
X100.768Y91.948
T3
X52.07Y91.44
X52.07Y86.36
X52.07Y81.28
X52.07Y76.2
X52.07Y71.12
X52.07Y66.04
X52.07Y60.96
X52.07Y58.42
X52.07Y55.88
X52.07Y50.8
X52.07Y45.72
X52.07Y40.64
X52.07Y38.1
X52.07Y30.48
X52.07Y25.4
X52.07Y20.32
X52.07Y15.24
X52.07Y10.16
X52.07Y5.08
X55.88Y91.44
X55.88Y86.36
X55.88Y81.28
X55.88Y76.2
X55.88Y71.12
X55.88Y60.96
X55.88Y58.42
X55.88Y55.88
X55.88Y50.8
X55.88Y45.72
X55.88Y40.64
X55.88Y38.1
X55.88Y30.48
X55.88Y25.4
X55.88Y20.32
X55.88Y15.24
X55.88Y10.16
X55.88Y5.08
X55.88Y1.27
X60.96Y96.52
X60.96Y91.44
X60.96Y86.36
X60.96Y81.28
X60.96Y76.2
X60.96Y71.12
X60.96Y60.96
X60.96Y58.42
X60.96Y55.88
X60.96Y50.8
X60.96Y45.72
X60.96Y40.64
X60.96Y38.1
X60.96Y25.4
X60.96Y20.32
X60.96Y15.24
X60.96Y10.16
X60.96Y5.08
X60.96Y1.27
X66.04Y86.36
X66.04Y81.28
X66.04Y76.2
X66.04Y71.12
X66.04Y66.04
X66.04Y60.96
X66.04Y58.42
X66.04Y40.64
X66.04Y38.1
X66.04Y30.48
X66.04Y25.4
X66.04Y20.32
X66.04Y15.24
X66.04Y10.16
X66.04Y1.27
X67.589Y28.057
X68.58Y90.17
X68.968Y3.165
X68.986Y26.406
X69.711Y20.819
X70.104Y21.844
X70.288Y10.024
X70.612Y4.572
X70.773Y7.356
X71.12Y86.36
X71.12Y81.28
X71.12Y76.2
X71.12Y71.12
X71.12Y66.04
X71.12Y60.96
X71.12Y58.42
X71.12Y45.72
X71.12Y40.64
X71.12Y38.1
X71.12Y35.56
X71.12Y30.48
X71.808Y25.809
X72.041Y14.094
X72.669Y27.332
X73.994Y33.344
X74.955Y28.184
X76.143Y3.437
X76.2Y92.71
X76.2Y86.36
X76.2Y81.28
X76.2Y76.2
X76.2Y71.12
X76.2Y66.04
X76.2Y60.96
X76.2Y58.42
X76.2Y45.72
X76.2Y40.64
X76.2Y38.1
X76.2Y35.56
X76.225Y26.623
X76.95Y19.675
X77.216Y21.844
X77.317Y10.024
X77.724Y4.572
X77.947Y7.356
X78.765Y25.898
X78.765Y13.96
X79.781Y27.422
X81.28Y96.52
X81.28Y45.72
X81.28Y40.64
X81.28Y38.1
X81.28Y35.56
X81.28Y33.02
X82.067Y28.184
X83.341Y3.038
X83.464Y26.623
X84.062Y20.945
X84.516Y9.932
X84.582Y21.971
X84.582Y8.001
X85.877Y3.306
X86.36Y96.52
X86.36Y91.44
X86.36Y86.36
X86.36Y81.28
X86.36Y76.2
X86.466Y14.041
X86.487Y35.921
X86.487Y33.562
X87.02Y27.422
X88.417Y25.898
X88.9Y15.875
X88.9Y8.255
X89.142Y22.606
X89.424Y3.191
X89.535Y66.04
X89.535Y60.96
X89.84Y23.448
X89.9Y14.002
X90.094Y5.68
X90.17Y55.88
X90.932Y21.071
X91.211Y24.883
X91.44Y96.52
X91.44Y86.36
X91.44Y81.28
X91.44Y76.2
X91.44Y38.1
X91.44Y35.56
X91.44Y33.02
X91.567Y16.044
X91.567Y12.742
X91.617Y41.199
X92.08Y7.798
X92.481Y24.171
X93.35Y7.798
X93.497Y11.675
X93.751Y23.358
X93.904Y25.341
X93.98Y45.72
X94.918Y3.191
X94.92Y15.383
X95.25Y71.12
X95.25Y66.04
X95.25Y60.96
X95.25Y16.51
X95.529Y12.436
X95.758Y25.341
X96.52Y86.36
X96.52Y81.28
X96.52Y76.2
X96.52Y55.88
X96.52Y38.1
X96.52Y35.56
X96.52Y3.175
X96.799Y14.533
X96.799Y12.397
X96.978Y30.099
X97.16Y18.923
X97.307Y5.733
X97.917Y12.397
X98.425Y18.923
X99.492Y25.238
X99.541Y24.12
X99.695Y18.923
X99.695Y7.798
X100.965Y17.145
X100.97Y7.798
X101.117Y24.12
X101.169Y13.111
X101.6Y101.6
X101.6Y91.44
X101.6Y86.36
X101.6Y81.28
X101.6Y76.2
X101.6Y71.12
X101.6Y66.04
X101.6Y55.88
X101.6Y38.1
X101.6Y35.56
X101.6Y30.48
X101.632Y20.933
X101.659Y4.704
X102.24Y7.798
X103.096Y4.704
X103.251Y15.891
X103.51Y7.798
X104.14Y76.2
X104.14Y71.12
X104.14Y66.04
X104.14Y48.26
X104.495Y30.48
X104.821Y4.704
X105.048Y22.6
X105.09Y9.898
X106.68Y91.44
X106.68Y86.36
X106.68Y81.28
X106.68Y35.56
X106.807Y13.707
X107.958Y12.351
X108.107Y13.707
X108.204Y17.78
X108.33Y15.891
X108.369Y2.632
X108.369Y1.632
X108.712Y7.62
X109.22Y63.5
X109.22Y55.88
X109.22Y44.45
X109.22Y35.56
X109.296Y12.944
X109.728Y10.16
X109.92Y25.899
X110.058Y11.979
X111.017Y27.417
X111.506Y36.459
X111.76Y96.52
X111.76Y74.93
X111.76Y40.64
X111.785Y28.057
X113.03Y49.53
X113.182Y3.546
X113.262Y36.221
X113.284Y38.258
X113.284Y33.858
X113.309Y26.66
X113.78Y20.056
X114.415Y10.024
X114.452Y6.975
X115.94Y25.883
X116.08Y14.064
X116.611Y27.332
X116.84Y96.52
X116.84Y74.93
X116.84Y49.53
X116.84Y45.72
X116.84Y40.64
X116.84Y38.1
X116.84Y35.56
X116.84Y31.115
X117.881Y25.883
X118.047Y34.837
X118.963Y28.184
X120.167Y26.607
X120.188Y3.703
X120.65Y49.53
X120.65Y45.72
X121.019Y19.549
X121.342Y9.896
X121.691Y7.229
X121.92Y91.44
X121.92Y86.36
X121.92Y80.01
X121.92Y76.2
X121.92Y40.64
X121.92Y38.1
X122.834Y25.771
X123.107Y14.106
X123.19Y96.52
X123.85Y27.296
X125.12Y25.755
X126.136Y27.93
X127.0Y96.52
X127.0Y92.71
X127.0Y86.36
X127.0Y80.01
X127.0Y76.2
X127.0Y71.12
X127.0Y66.04
X127.0Y60.96
X127.0Y58.42
X127.0Y40.64
X127.0Y38.1
X127.0Y30.48
X127.025Y26.48
X127.279Y3.556
X128.393Y9.643
X128.422Y19.675
X128.524Y27.94
X129.023Y7.103
X129.54Y35.56
X129.54Y30.48
X129.909Y14.087
X130.284Y25.771
X131.089Y27.296
X132.08Y96.52
X132.08Y90.17
X132.08Y86.36
X132.08Y80.01
X132.08Y76.2
X132.08Y71.12
X132.08Y66.04
X132.08Y60.96
X132.08Y58.42
X132.08Y40.64
X132.08Y38.1
X132.08Y35.56
X134.62Y27.94
X134.62Y25.4
X134.62Y20.32
X134.62Y15.24
X134.62Y10.16
X134.62Y5.08
X137.16Y86.36
X137.16Y81.28
X137.16Y76.2
X137.16Y71.12
X137.16Y60.96
X137.16Y58.42
X137.16Y55.88
X137.16Y50.8
X137.16Y15.24
X137.16Y10.16
X137.16Y5.08
X137.615Y28.067
X137.944Y35.579
X138.976Y30.499
X139.7Y38.1
X139.7Y35.56
X140.932Y15.218
X140.932Y13.718
X141.249Y23.866
X141.301Y21.821
X142.24Y86.36
X142.24Y81.28
X142.24Y76.2
X142.24Y40.64
X142.24Y35.56
X142.24Y30.48
X142.24Y20.32
X142.24Y5.08
X144.78Y38.1
X144.845Y16.246
X144.845Y13.198
X146.67Y16.246
X146.67Y13.198
X147.32Y91.44
X147.32Y86.36
X147.32Y81.28
X147.32Y76.2
X147.32Y71.12
X147.32Y66.04
X147.32Y60.96
X147.32Y58.42
X147.32Y55.88
X147.32Y50.8
X147.32Y45.72
X147.32Y40.64
X147.32Y38.1
X147.32Y27.94
X147.32Y22.86
X147.32Y20.32
X147.32Y5.08
X147.32Y2.54
T4
X68.64Y53.637
X68.64Y52.37
X69.385Y54.662
X69.385Y51.345
X70.59Y55.053
X70.59Y50.953
X71.92Y55.053
X71.92Y50.953
X73.25Y55.053
X73.25Y50.953
X74.58Y55.053
X74.58Y50.953
X75.795Y54.662
X75.795Y51.345
X76.539Y53.637
X76.539Y52.37
X78.64Y53.637
X78.64Y52.37
X79.385Y54.662
X79.385Y51.345
X80.59Y55.053
X80.59Y50.953
X81.92Y55.053
X81.92Y50.953
X83.25Y55.053
X83.25Y50.953
X84.58Y55.053
X84.58Y50.953
X85.795Y54.662
X85.795Y51.345
X86.539Y53.637
X86.539Y52.37
X112.716Y54.767
X112.716Y53.5
X113.461Y55.792
X113.461Y52.475
X114.666Y56.184
X114.666Y52.084
X115.996Y56.184
X115.996Y52.084
X117.326Y56.184
X117.326Y52.084
X118.656Y56.184
X118.656Y52.084
X119.871Y55.792
X119.871Y52.475
X120.616Y54.767
X120.616Y53.5
X122.716Y54.767
X122.716Y53.5
X123.461Y55.792
X123.461Y52.475
X124.666Y56.184
X124.666Y52.084
X125.996Y56.184
X125.996Y52.084
X127.326Y56.184
X127.326Y52.084
X128.656Y56.184
X128.656Y52.084
X129.871Y55.792
X129.871Y52.475
X130.616Y54.767
X130.616Y53.5
T6
X91.747Y46.99
X95.119Y38.405
X106.502Y22.598
X139.662Y16.881
T7
X89.401Y58.965
X89.401Y53.885
X89.401Y48.805
X89.401Y41.185
X97.021Y58.965
X97.021Y53.885
X97.021Y48.805
X97.021Y41.185
X102.108Y59.035
X102.108Y53.955
X102.108Y48.875
X102.108Y41.255
X109.728Y59.035
X109.728Y53.955
X109.728Y48.875
X109.728Y41.255
X134.239Y35.579
X134.239Y33.039
X134.239Y30.499
T8
X75.68Y31.603
X77.59Y31.603
X79.5Y31.603
X119.756Y32.734
X121.666Y32.734
X123.576Y32.734
T9
X90.217Y51.308
X96.321Y51.41
T10
X67.789Y23.642
X67.789Y21.642
X67.789Y19.642
X67.789Y17.642
X67.789Y15.642
X67.793Y12.436
X67.793Y10.436
X67.793Y8.436
X67.793Y6.436
X67.793Y4.436
X72.669Y23.642
X72.669Y21.642
X72.669Y19.642
X72.669Y17.642
X72.669Y15.642
X72.673Y12.436
X72.673Y10.436
X72.673Y8.436
X72.673Y6.436
X72.673Y4.436
X74.967Y23.642
X74.967Y21.642
X74.967Y19.642
X74.967Y17.642
X74.967Y15.642
X74.967Y12.436
X74.967Y10.436
X74.967Y8.436
X74.967Y6.436
X74.967Y4.436
X79.847Y23.642
X79.847Y21.642
X79.847Y19.642
X79.847Y17.642
X79.847Y15.642
X79.847Y12.436
X79.847Y10.436
X79.847Y8.436
X79.847Y6.436
X79.847Y4.436
X82.158Y23.642
X82.158Y21.642
X82.158Y19.642
X82.158Y17.642
X82.158Y15.642
X82.166Y12.436
X82.166Y10.436
X82.166Y8.436
X82.166Y6.436
X82.166Y4.436
X87.038Y23.642
X87.038Y21.642
X87.038Y19.642
X87.038Y17.642
X87.038Y15.642
X87.046Y12.436
X87.046Y10.436
X87.046Y8.436
X87.046Y6.436
X87.046Y4.436
X111.778Y12.46
X111.778Y10.46
X111.778Y8.46
X111.778Y6.46
X111.778Y4.46
X111.785Y23.67
X111.785Y21.67
X111.785Y19.67
X111.785Y17.67
X111.785Y15.67
X116.658Y12.46
X116.658Y10.46
X116.658Y8.46
X116.658Y6.46
X116.658Y4.46
X116.665Y23.67
X116.665Y21.67
X116.665Y19.67
X116.665Y17.67
X116.665Y15.67
X118.88Y12.428
X118.88Y10.428
X118.88Y8.428
X118.88Y6.428
X118.88Y4.428
X118.963Y23.67
X118.963Y21.67
X118.963Y19.67
X118.963Y17.67
X118.963Y15.67
X123.76Y12.428
X123.76Y10.428
X123.76Y8.428
X123.76Y6.428
X123.76Y4.428
X123.843Y23.67
X123.843Y21.67
X123.843Y19.67
X123.843Y17.67
X123.843Y15.67
X126.043Y12.46
X126.043Y10.46
X126.043Y8.46
X126.043Y6.46
X126.043Y4.46
X126.129Y23.67
X126.129Y21.67
X126.129Y19.67
X126.129Y17.67
X126.129Y15.67
X130.923Y12.46
X130.923Y10.46
X130.923Y8.46
X130.923Y6.46
X130.923Y4.46
X131.009Y23.67
X131.009Y21.67
X131.009Y19.67
X131.009Y17.67
X131.009Y15.67
T11
X55.287Y65.55
X55.305Y84.074
X62.787Y65.55
X62.805Y84.074
X137.446Y84.201
X137.446Y65.667
X144.946Y84.201
X144.946Y65.667
T12
X65.786Y97.028
X70.786Y97.028
X97.826Y96.552
X102.826Y96.552
X129.584Y97.249
X134.584Y97.249
T14
X74.404Y73.035
X79.004Y72.635
X79.004Y64.635
X82.804Y85.935
X82.804Y82.135
X82.804Y78.335
X82.804Y72.635
X82.804Y64.635
X86.604Y72.635
X86.604Y64.635
X91.204Y73.035
X108.656Y73.085
X113.256Y72.685
X113.256Y64.685
X117.056Y85.985
X117.056Y82.185
X117.056Y78.385
X117.056Y72.685
X117.056Y64.685
X120.856Y72.685
X120.856Y64.685
X125.456Y73.085
T15
X64.674Y51.606
X64.674Y44.406
X82.633Y91.394
X89.833Y91.394
X110.592Y91.409
X117.792Y91.409
X134.582Y51.948
X134.582Y44.748
T16
X143.658Y17.358
X143.658Y11.579
T17
X54.0Y96.0
X54.0Y34.0
X146.0Y96.0
X146.0Y34.0
T5
G00X58.124Y54.756
M15
G01X59.224Y54.756
M16
G05
G00X58.124Y41.256
M15
G01X59.224Y41.256
M16
G05
G00X79.483Y97.944
M15
G01X79.483Y96.844
M16
G05
G00X92.983Y97.944
M15
G01X92.983Y96.844
M16
G05
G00X107.442Y97.959
M15
G01X107.442Y96.859
M16
G05
G00X120.942Y97.959
M15
G01X120.942Y96.859
M16
G05
G00X141.132Y55.098
M15
G01X140.032Y55.098
M16
G05
G00X141.132Y41.598
M15
G01X140.032Y41.598
M16
G05
G00X142.608Y18.788
M15
G01X143.708Y18.788
M16
G05
G00X142.608Y10.149
M15
G01X143.708Y10.149
M16
G05
G00X146.938Y18.788
M15
G01X147.738Y18.788
M16
G05
G00X146.938Y10.149
M15
G01X147.738Y10.149
M16
G05
T13
G00X70.59Y53.003
M15
G01X74.59Y53.003
M16
G05
G00X80.59Y53.003
M15
G01X84.59Y53.003
M16
G05
G00X114.666Y54.134
M15
G01X118.666Y54.134
M16
G05
G00X124.666Y54.134
M15
G01X128.666Y54.134
M16
G05
M30
